<?xml version="1.0" encoding="UTF-8" standalone="no"?>
<!-- Created with Inkscape (http://www.inkscape.org/) -->

<svg
   xmlns:dc="http://purl.org/dc/elements/1.1/"
   xmlns:cc="http://creativecommons.org/ns#"
   xmlns:rdf="http://www.w3.org/1999/02/22-rdf-syntax-ns#"
   xmlns:svg="http://www.w3.org/2000/svg"
   xmlns="http://www.w3.org/2000/svg"
   xmlns:sodipodi="http://sodipodi.sourceforge.net/DTD/sodipodi-0.dtd"
   xmlns:inkscape="http://www.inkscape.org/namespaces/inkscape"
   version="1.1"
   id="svg2"
   xml:space="preserve"
   width="1066.6667"
   height="1066.6667"
   viewBox="0 0 1066.6667 1066.6667"
   sodipodi:docname="timer.svg"
   inkscape:version="0.92.2 (5c3e80d, 2017-08-06)"><metadata
     id="metadata8"><rdf:RDF><cc:Work
         rdf:about=""><dc:format>image/svg+xml</dc:format><dc:type
           rdf:resource="http://purl.org/dc/dcmitype/StillImage" /><dc:title></dc:title></cc:Work></rdf:RDF></metadata><defs
     id="defs6"><clipPath
       clipPathUnits="userSpaceOnUse"
       id="clipPath20"><path
         d="M 0,800 H 800 V 0 H 0 Z"
         id="path18"
         inkscape:connector-curvature="0" /></clipPath><clipPath
       clipPathUnits="userSpaceOnUse"
       id="clipPath156"><path
         d="M 0,800 H 800 V 0 H 0 Z"
         id="path154"
         inkscape:connector-curvature="0" /></clipPath></defs><sodipodi:namedview
     pagecolor="#ffffff"
     bordercolor="#666666"
     borderopacity="1"
     objecttolerance="10"
     gridtolerance="10"
     guidetolerance="10"
     inkscape:pageopacity="0"
     inkscape:pageshadow="2"
     inkscape:window-width="1920"
     inkscape:window-height="1009"
     id="namedview4"
     showgrid="false"
     inkscape:zoom="0.42890442"
     inkscape:cx="463.04468"
     inkscape:cy="405.84635"
     inkscape:window-x="0"
     inkscape:window-y="0"
     inkscape:window-maximized="1"
     inkscape:current-layer="g10" /><g
     id="g10"
     inkscape:groupmode="layer"
     inkscape:label="11"
     transform="matrix(1.3333333,0,0,-1.3333333,0,1066.6667)"><g
       id="g14"><g
         id="g16"
         clip-path="url(#clipPath20)"><g
           id="g22"
           transform="translate(391.3511,24.6367)"><path
             d="M 0,0 C 0.246,0.145 0.66,0.17 0.635,0.518 0.617,0.863 0.383,1.547 1.068,1.781 1.757,2.014 1.369,1.576 1.133,1.275 0.896,0.975 0.973,0.789 1.002,0.346 1.027,-0.092 0.719,-0.242 0.254,-0.459 -0.213,-0.678 -0.248,-0.146 0,0"
             style="fill:#333333;fill-opacity:1;fill-rule:evenodd;stroke:none"
             id="path24"
             inkscape:connector-curvature="0" /></g><g
           id="g26"
           transform="translate(380.1616,28.5508)"><path
             d="M 0,0 C 2.674,0.67 4.346,-0.1 4.346,-0.1 L 4.203,-0.871 c 0,0 -1.953,0.131 -3.504,-0.1 -1.547,-0.222 -2.252,-0.713 -2.252,-0.713 l -0.336,0.768 c 0,0 0.733,0.627 1.889,0.916"
             style="fill:#333333;fill-opacity:1;fill-rule:evenodd;stroke:none"
             id="path28"
             inkscape:connector-curvature="0" /></g><g
           id="g30"
           transform="translate(380.9624,29.6484)"><path
             d="M 0,0 0.377,0.137 0.873,-1.193 0.5,-1.338 Z"
             style="fill:#333333;fill-opacity:1;fill-rule:evenodd;stroke:none"
             id="path32"
             inkscape:connector-curvature="0" /></g><g
           id="g34"
           transform="translate(392.7412,27.1719)"><path
             d="M 0,0 C 0.377,0.021 0.701,-0.266 0.724,-0.641 0.75,-1.018 0.463,-1.34 0.084,-1.365 -0.294,-1.389 -0.619,-1.1 -0.641,-0.729 -0.666,-0.35 -0.378,-0.029 0,0"
             style="fill:#333333;fill-opacity:1;fill-rule:evenodd;stroke:none"
             id="path36"
             inkscape:connector-curvature="0" /></g><g
           id="g38"
           transform="translate(369.2593,24.5859)"><path
             d="M 0,0 C 0.375,0.025 0.701,-0.262 0.727,-0.637 0.748,-1.012 0.463,-1.33 0.082,-1.355 -0.293,-1.381 -0.615,-1.096 -0.643,-0.723 -0.666,-0.346 -0.377,-0.027 0,0"
             style="fill:#333333;fill-opacity:1;fill-rule:evenodd;stroke:none"
             id="path40"
             inkscape:connector-curvature="0" /></g><g
           id="g42"
           transform="translate(381.2905,31.3535)"><path
             d="M 0,0 C 0.6,0.033 1.119,-0.414 1.156,-1.016 1.191,-1.607 0.734,-2.127 0.133,-2.166 -0.469,-2.207 -0.98,-1.754 -1.021,-1.152 -1.062,-0.553 -0.604,-0.037 0,0"
             style="fill:#333333;fill-opacity:1;fill-rule:evenodd;stroke:none"
             id="path44"
             inkscape:connector-curvature="0" /></g><g
           id="g46"
           transform="translate(397.7959,23.3242)"><path
             d="m 0,0 h 0.685 v 0.865 c 0,0.899 0.11,1.614 0.338,2.145 0.225,0.529 0.617,0.914 1.16,1.158 0.543,0.238 1.291,0.359 2.233,0.359 1.683,0 2.517,-0.406 2.517,-1.236 C 6.933,3.029 6.843,2.797 6.664,2.613 6.494,2.422 6.285,2.328 6.048,2.328 5.937,2.328 5.74,2.346 5.464,2.393 5.201,2.434 4.962,2.459 4.773,2.459 4.257,2.459 3.927,2.303 3.771,1.994 3.632,1.695 3.556,1.258 3.556,0.686 V 0 H 4.257 C 5.353,0 5.896,-0.324 5.896,-0.99 5.896,-1.455 5.757,-1.752 5.464,-1.883 5.173,-2.008 4.771,-2.07 4.257,-2.07 H 3.556 v -7.608 c 0,-0.564 -0.133,-0.996 -0.41,-1.289 -0.266,-0.303 -0.613,-0.453 -1.042,-0.453 -0.409,0 -0.743,0.15 -1.018,0.453 -0.268,0.293 -0.401,0.725 -0.401,1.289 v 7.608 h -0.789 c -0.433,0 -0.756,0.091 -0.992,0.287 -0.232,0.189 -0.346,0.443 -0.346,0.756 C -1.442,-0.34 -0.963,0 0,0"
             style="fill:#333333;fill-opacity:1;fill-rule:nonzero;stroke:none"
             id="path48"
             inkscape:connector-curvature="0" /></g><g
           id="g50"
           transform="translate(407.1943,16.0469)"><path
             d="M 0,0 V -2.4 C 0,-2.979 -0.147,-3.414 -0.416,-3.705 -0.688,-4 -1.032,-4.143 -1.452,-4.143 c -0.423,0 -0.761,0.143 -1.025,0.446 -0.262,0.293 -0.398,0.722 -0.398,1.297 v 7.996 c 0,1.291 0.466,1.939 1.396,1.939 0.479,0 0.82,-0.152 1.033,-0.451 0.209,-0.307 0.323,-0.75 0.348,-1.34 0.342,0.59 0.693,1.033 1.053,1.34 C 1.32,7.383 1.8,7.535 2.402,7.535 3.011,7.535 3.591,7.383 4.158,7.084 4.729,6.777 5.013,6.375 5.013,5.883 5.013,5.529 4.89,5.24 4.652,5.014 4.406,4.785 4.146,4.67 3.869,4.67 3.759,4.67 3.505,4.736 3.103,4.869 2.699,4.994 2.343,5.059 2.035,5.059 1.615,5.059 1.271,4.949 1.009,4.73 0.74,4.506 0.531,4.18 0.382,3.746 0.24,3.311 0.14,2.793 0.08,2.195 0.023,1.592 0,0.863 0,0"
             style="fill:#333333;fill-opacity:1;fill-rule:nonzero;stroke:none"
             id="path52"
             inkscape:connector-curvature="0" /></g><g
           id="g54"
           transform="translate(414.7744,18.668)"><path
             d="M 0,0 H 5.207 C 5.136,0.979 4.875,1.715 4.414,2.201 3.953,2.688 3.353,2.928 2.599,2.928 1.884,2.928 1.296,2.688 0.837,2.193 0.377,1.693 0.099,0.965 0,0 M 5.619,-1.631 H 0 c 0.011,-0.654 0.138,-1.232 0.394,-1.726 0.256,-0.497 0.6,-0.872 1.022,-1.127 0.427,-0.252 0.892,-0.377 1.402,-0.377 0.346,0 0.66,0.041 0.945,0.125 0.28,0.074 0.557,0.205 0.824,0.377 0.267,0.172 0.51,0.351 0.733,0.552 0.226,0.196 0.519,0.463 0.873,0.799 0.154,0.125 0.363,0.19 0.633,0.19 0.295,0 0.531,-0.08 0.717,-0.246 0.185,-0.161 0.271,-0.385 0.271,-0.684 0,-0.26 -0.098,-0.561 -0.295,-0.908 C 7.31,-5.008 7.005,-5.334 6.593,-5.654 6.179,-5.971 5.662,-6.242 5.046,-6.451 4.425,-6.66 3.709,-6.764 2.904,-6.764 c -1.848,0 -3.281,0.522 -4.301,1.577 -1.023,1.054 -1.539,2.478 -1.539,4.279 0,0.846 0.127,1.637 0.383,2.367 0.248,0.729 0.619,1.344 1.107,1.869 0.481,0.514 1.073,0.912 1.785,1.19 C 1.046,4.793 1.83,4.932 2.693,4.932 3.814,4.932 4.775,4.697 5.58,4.221 6.38,3.746 6.988,3.137 7.384,2.387 7.781,1.635 7.982,0.869 7.982,0.09 7.982,-0.625 7.773,-1.096 7.359,-1.309 6.947,-1.525 6.369,-1.631 5.619,-1.631"
             style="fill:#333333;fill-opacity:1;fill-rule:nonzero;stroke:none"
             id="path56"
             inkscape:connector-curvature="0" /></g><g
           id="g58"
           transform="translate(426.7187,18.668)"><path
             d="M 0,0 H 5.202 C 5.135,0.979 4.866,1.715 4.411,2.201 3.946,2.688 3.348,2.928 2.596,2.928 1.879,2.928 1.295,2.688 0.831,2.193 0.375,1.693 0.092,0.965 0,0 M 5.614,-1.631 H 0 c 0.008,-0.654 0.139,-1.232 0.393,-1.726 0.253,-0.497 0.596,-0.872 1.018,-1.127 0.425,-0.252 0.894,-0.377 1.406,-0.377 0.342,0 0.66,0.041 0.941,0.125 0.282,0.074 0.555,0.205 0.826,0.377 0.268,0.172 0.51,0.351 0.735,0.552 0.219,0.196 0.517,0.463 0.871,0.799 0.152,0.125 0.363,0.19 0.631,0.19 0.299,0 0.533,-0.08 0.722,-0.246 0.18,-0.161 0.268,-0.385 0.268,-0.684 0,-0.26 -0.102,-0.561 -0.303,-0.908 C 7.311,-5.008 7.002,-5.334 6.586,-5.654 6.176,-5.971 5.657,-6.242 5.043,-6.451 4.426,-6.66 3.704,-6.764 2.897,-6.764 c -1.842,0 -3.275,0.522 -4.301,1.577 -1.023,1.054 -1.535,2.478 -1.535,4.279 0,0.846 0.126,1.637 0.381,2.367 0.25,0.729 0.619,1.344 1.103,1.869 0.481,0.514 1.077,0.912 1.789,1.19 C 1.04,4.793 1.827,4.932 2.688,4.932 3.809,4.932 4.77,4.697 5.584,4.221 6.383,3.746 6.983,3.137 7.379,2.387 7.774,1.635 7.981,0.869 7.981,0.09 7.981,-0.625 7.771,-1.096 7.36,-1.309 6.944,-1.525 6.364,-1.631 5.614,-1.631"
             style="fill:#333333;fill-opacity:1;fill-rule:nonzero;stroke:none"
             id="path60"
             inkscape:connector-curvature="0" /></g><g
           id="g62"
           transform="translate(444.251,17.7949)"><path
             d="m 0,0 c 0,0.758 -0.116,1.406 -0.35,1.947 -0.229,0.549 -0.549,0.959 -0.961,1.254 -0.404,0.291 -0.863,0.436 -1.363,0.436 -0.789,0 -1.457,-0.311 -2,-0.936 -0.545,-0.625 -0.817,-1.541 -0.817,-2.758 0,-1.138 0.27,-2.027 0.811,-2.668 0.541,-0.63 1.205,-0.947 2.006,-0.947 0.478,0 0.92,0.141 1.328,0.412 0.409,0.28 0.736,0.694 0.978,1.25 C -0.122,-1.457 0,-0.783 0,0 M -5.629,4.172 V 3.826 c 0.537,0.664 1.105,1.153 1.691,1.467 0.57,0.311 1.234,0.473 1.969,0.473 0.881,0 1.701,-0.231 2.447,-0.686 C 1.22,4.619 1.802,3.959 2.232,3.078 2.666,2.199 2.884,1.166 2.884,-0.035 2.884,-0.916 2.759,-1.727 2.513,-2.471 2.265,-3.209 1.916,-3.83 1.484,-4.328 1.048,-4.826 0.535,-5.219 -0.055,-5.488 c -0.598,-0.27 -1.229,-0.403 -1.914,-0.403 -0.817,0 -1.51,0.164 -2.063,0.495 -0.56,0.322 -1.088,0.814 -1.597,1.449 v -4.311 c 0,-1.262 -0.463,-1.892 -1.377,-1.892 -0.543,0 -0.893,0.16 -1.075,0.486 -0.169,0.33 -0.259,0.799 -0.259,1.428 v 12.39 c 0,0.547 0.117,0.955 0.355,1.225 0.238,0.266 0.565,0.408 0.979,0.408 0.408,0 0.736,-0.142 0.99,-0.418 0.262,-0.279 0.387,-0.674 0.387,-1.197"
             style="fill:#333333;fill-opacity:1;fill-rule:nonzero;stroke:none"
             id="path64"
             inkscape:connector-curvature="0" /></g><g
           id="g66"
           transform="translate(451.4463,21.9492)"><path
             d="m 0,0 v -8.303 c 0,-0.574 -0.137,-1.004 -0.409,-1.297 -0.277,-0.302 -0.621,-0.445 -1.041,-0.445 -0.425,0 -0.759,0.15 -1.029,0.453 -0.256,0.305 -0.393,0.731 -0.393,1.289 v 8.223 c 0,0.56 0.137,0.99 0.393,1.273 0.27,0.297 0.604,0.44 1.029,0.44 0.42,0 0.764,-0.143 1.041,-0.44 C -0.137,0.91 0,0.506 0,0 m -1.422,2.971 c -0.401,0 -0.739,0.125 -1.02,0.363 -0.287,0.254 -0.43,0.594 -0.43,1.039 0,0.408 0.145,0.744 0.438,1.006 0.289,0.264 0.631,0.398 1.012,0.398 0.377,0 0.703,-0.121 0.99,-0.357 C -0.145,5.178 0,4.83 0,4.373 0,3.934 -0.141,3.588 -0.42,3.338 -0.7,3.096 -1.03,2.971 -1.422,2.971"
             style="fill:#333333;fill-opacity:1;fill-rule:nonzero;stroke:none"
             id="path68"
             inkscape:connector-curvature="0" /></g><g
           id="g70"
           transform="translate(460.7031,13.2129)"><path
             d="M 0,0 -2.529,4.17 -4.091,2.699 V 0.412 c 0,-0.553 -0.143,-0.973 -0.438,-1.267 -0.283,-0.303 -0.625,-0.454 -1.002,-0.454 -0.445,0 -0.789,0.143 -1.043,0.446 -0.248,0.293 -0.379,0.722 -0.379,1.297 v 12.25 c 0,0.634 0.125,1.121 0.366,1.451 0.248,0.338 0.603,0.504 1.056,0.504 0.44,0 0.789,-0.151 1.049,-0.459 0.26,-0.295 0.391,-0.742 0.391,-1.33 V 5.885 l 3.23,3.388 c 0.401,0.418 0.703,0.707 0.916,0.864 0.213,0.15 0.465,0.232 0.762,0.232 0.363,0 0.66,-0.117 0.906,-0.342 C 1.956,9.797 2.075,9.512 2.075,9.168 2.075,8.754 1.686,8.184 0.909,7.484 L -0.615,6.09 2.327,1.457 C 2.54,1.113 2.702,0.854 2.797,0.674 2.891,0.498 2.94,0.322 2.94,0.162 2.94,-0.295 2.815,-0.65 2.565,-0.918 2.315,-1.18 1.981,-1.309 1.581,-1.309 c -0.35,0 -0.62,0.088 -0.809,0.284 C 0.581,-0.832 0.319,-0.492 0,0"
             style="fill:#333333;fill-opacity:1;fill-rule:nonzero;stroke:none"
             id="path72"
             inkscape:connector-curvature="0" /></g><g
           id="g74"
           transform="translate(466.9404,11.9043)"><path
             d="m 0,0 c -0.436,0 -0.807,0.139 -1.123,0.42 -0.314,0.277 -0.475,0.674 -0.475,1.182 0,0.425 0.156,0.794 0.455,1.099 0.303,0.311 0.674,0.461 1.115,0.461 0.44,0 0.817,-0.15 1.133,-0.451 C 1.414,2.404 1.576,2.031 1.576,1.602 1.576,1.098 1.414,0.709 1.105,0.428 0.789,0.139 0.421,0 0,0"
             style="fill:#333333;fill-opacity:1;fill-rule:nonzero;stroke:none"
             id="path76"
             inkscape:connector-curvature="0" /></g><g
           id="g78"
           transform="translate(481.2217,15.4609)"><path
             d="m 0,0 c 0,-0.361 -0.108,-0.742 -0.321,-1.146 -0.213,-0.413 -0.541,-0.793 -0.984,-1.168 -0.434,-0.366 -0.986,-0.661 -1.654,-0.887 -0.666,-0.223 -1.416,-0.338 -2.245,-0.338 -1.779,0 -3.166,0.518 -4.162,1.553 -0.992,1.035 -1.492,2.422 -1.492,4.158 0,1.185 0.225,2.223 0.686,3.131 0.451,0.898 1.111,1.601 1.976,2.095 0.86,0.497 1.895,0.741 3.092,0.741 0.744,0 1.424,-0.11 2.049,-0.327 0.621,-0.214 1.144,-0.5 1.578,-0.837 0.426,-0.352 0.758,-0.713 0.986,-1.098 0.227,-0.393 0.34,-0.756 0.34,-1.098 0,-0.338 -0.125,-0.633 -0.381,-0.867 -0.259,-0.242 -0.572,-0.363 -0.929,-0.363 -0.241,0 -0.44,0.066 -0.6,0.187 -0.158,0.125 -0.335,0.323 -0.531,0.596 -0.35,0.535 -0.715,0.934 -1.098,1.197 -0.379,0.272 -0.867,0.403 -1.456,0.403 -0.843,0 -1.534,-0.332 -2.05,-0.996 -0.519,-0.659 -0.781,-1.573 -0.781,-2.717 0,-0.537 0.072,-1.041 0.205,-1.49 0.126,-0.45 0.322,-0.836 0.576,-1.159 0.254,-0.316 0.555,-0.554 0.912,-0.722 0.36,-0.172 0.754,-0.252 1.18,-0.252 0.578,0 1.07,0.136 1.477,0.404 0.418,0.266 0.777,0.674 1.095,1.219 0.174,0.32 0.358,0.574 0.559,0.754 0.203,0.179 0.453,0.275 0.748,0.275 0.355,0 0.648,-0.135 0.873,-0.4 C -0.118,0.586 0,0.293 0,0"
             style="fill:#333333;fill-opacity:1;fill-rule:nonzero;stroke:none"
             id="path80"
             inkscape:connector-curvature="0" /></g><g
           id="g82"
           transform="translate(490.7275,17.7383)"><path
             d="M 0,0 C 0,1.172 -0.26,2.078 -0.772,2.732 -1.286,3.391 -1.979,3.717 -2.85,3.717 -3.411,3.717 -3.903,3.574 -4.334,3.281 -4.764,2.988 -5.086,2.564 -5.321,1.99 -5.551,1.422 -5.668,0.76 -5.668,0 c 0,-0.754 0.111,-1.4 0.341,-1.963 0.231,-0.56 0.555,-0.994 0.981,-1.291 0.428,-0.295 0.924,-0.449 1.496,-0.449 0.871,0 1.564,0.328 2.078,0.986 C -0.26,-2.059 0,-1.154 0,0 M 2.884,0 C 2.884,-0.854 2.748,-1.641 2.49,-2.365 2.216,-3.088 1.834,-3.711 1.326,-4.223 0.824,-4.746 0.216,-5.143 -0.479,-5.418 -1.187,-5.695 -1.975,-5.834 -2.85,-5.834 c -0.867,0 -1.65,0.139 -2.344,0.42 -0.691,0.277 -1.297,0.682 -1.804,1.201 -0.51,0.527 -0.893,1.145 -1.161,1.854 -0.255,0.714 -0.392,1.5 -0.392,2.359 0,0.869 0.142,1.668 0.4,2.393 0.266,0.726 0.651,1.339 1.151,1.847 0.5,0.512 1.097,0.91 1.806,1.186 0.711,0.275 1.494,0.418 2.344,0.418 0.871,0 1.66,-0.143 2.371,-0.422 C 0.226,5.141 0.828,4.738 1.339,4.229 1.847,3.699 2.229,3.086 2.492,2.373 2.75,1.654 2.884,0.865 2.884,0"
             style="fill:#333333;fill-opacity:1;fill-rule:nonzero;stroke:none"
             id="path84"
             inkscape:connector-curvature="0" /></g><g
           id="g86"
           transform="translate(504.5605,17.5293)"><path
             d="m 0,0 v -3.818 c 0,-0.604 -0.132,-1.049 -0.406,-1.354 -0.279,-0.303 -0.633,-0.453 -1.084,-0.453 -0.435,0 -0.791,0.15 -1.051,0.453 -0.275,0.305 -0.412,0.75 -0.412,1.354 v 4.576 c 0,0.722 -0.025,1.287 -0.072,1.689 C -3.076,2.838 -3.21,3.168 -3.427,3.428 -3.646,3.682 -3.99,3.813 -4.457,3.813 -5.4,3.813 -6.017,3.49 -6.312,2.838 -6.607,2.199 -6.763,1.27 -6.763,0.059 v -3.877 c 0,-0.594 -0.135,-1.045 -0.401,-1.35 -0.273,-0.307 -0.627,-0.457 -1.068,-0.457 -0.434,0 -0.793,0.15 -1.072,0.457 -0.276,0.305 -0.418,0.756 -0.418,1.35 V 4.4 c 0,0.536 0.129,0.95 0.373,1.231 0.256,0.279 0.582,0.422 0.988,0.422 0.393,0 0.719,-0.137 0.986,-0.397 0.262,-0.26 0.391,-0.625 0.391,-1.09 V 4.295 c 0.504,0.59 1.035,1.035 1.6,1.31 0.572,0.286 1.197,0.426 1.898,0.426 0.719,0 1.34,-0.146 1.856,-0.429 0.521,-0.293 0.945,-0.731 1.283,-1.307 0.49,0.586 1.008,1.025 1.562,1.31 0.555,0.28 1.168,0.426 1.84,0.426 0.783,0 1.465,-0.162 2.033,-0.467 C 5.651,5.26 6.073,4.811 6.354,4.246 6.604,3.721 6.723,2.902 6.723,1.789 v -5.607 c 0,-0.604 -0.137,-1.049 -0.41,-1.354 -0.268,-0.303 -0.633,-0.453 -1.084,-0.453 -0.434,0 -0.789,0.15 -1.064,0.457 -0.278,0.305 -0.415,0.756 -0.415,1.35 V 1.014 C 3.75,1.631 3.721,2.123 3.67,2.498 3.616,2.867 3.477,3.18 3.245,3.432 3.012,3.682 2.657,3.813 2.19,3.813 1.813,3.813 1.452,3.691 1.112,3.471 0.772,3.248 0.508,2.941 0.313,2.572 0.108,2.084 0,1.229 0,0"
             style="fill:#333333;fill-opacity:1;fill-rule:nonzero;stroke:none"
             id="path88"
             inkscape:connector-curvature="0" /></g><g
           id="g90"
           transform="translate(377.9116,10.8984)"><path
             d="m 0,0 c 0,0 -1.568,0.252 -3.098,1.924 -1.539,1.687 -1.798,3.472 -1.798,3.472 0,0 1.953,-0.459 3.355,-0.615 2.475,-0.281 4.701,-0.125 5.75,-0.01 2.273,0.252 3.482,0.668 3.975,0.79 2.902,0.699 5.693,2.576 5.693,2.576 0,0 0.355,-2.18 -1.285,-4.6 C 11.951,2.594 10.676,1.508 9.209,0.76 4.182,-1.385 0,0 0,0"
             style="fill:#333333;fill-opacity:1;fill-rule:evenodd;stroke:none"
             id="path92"
             inkscape:connector-curvature="0" /></g><g
           id="g94"
           transform="translate(386.9429,20.7266)"><path
             d="m 0,0 c -1.041,-0.059 -1.937,0.725 -2.004,1.76 -0.064,1.033 0.731,1.929 1.77,1.992 C 0.805,3.822 1.707,3.033 1.77,2.002 1.836,0.965 1.039,0.068 0,0 m -8.453,-2.123 c -1.654,-0.106 -3.078,1.139 -3.18,2.789 -0.103,1.641 1.156,3.066 2.809,3.166 1.656,0.113 3.084,-1.139 3.181,-2.779 0.106,-1.649 -1.156,-3.073 -2.81,-3.176 M 2.838,2.568 C 2.301,3.223 0.5,6.305 -3.141,6.754 -4.07,6.865 -8.994,6.672 -11.947,3.941 c -0.291,-0.277 -1.791,-1.591 -2.287,-4.045 -0.389,-1.894 0.246,-4.027 0.246,-4.027 0,0 3.275,-0.683 5.742,-0.619 3.912,0.096 5.883,0.443 7.928,1.062 3.011,0.911 5.146,2.438 5.146,2.438 0,0 -1.447,3.16 -1.99,3.818"
             style="fill:#333333;fill-opacity:1;fill-rule:evenodd;stroke:none"
             id="path96"
             inkscape:connector-curvature="0" /></g><g
           id="g98"
           transform="translate(388.3667,25.4297)"><path
             d="m 0,0 0.951,1.141 c 0,0 1.313,-0.649 2.16,-1.864 0.838,-1.213 1.387,-2.322 1.387,-2.322 l -1.57,-0.953 c 0,0 -0.485,1.17 -1.217,2.109 C 0.984,-0.955 0,0 0,0"
             style="fill:#333333;fill-opacity:1;fill-rule:evenodd;stroke:none"
             id="path100"
             inkscape:connector-curvature="0" /></g><g
           id="g102"
           transform="translate(373.9097,23.9355)"><path
             d="m 0,0 c 0,0 -1.1,-1.279 -1.383,-2.434 -0.277,-1.16 -0.221,-2.554 -0.221,-2.554 l -1.628,0.56 c 0,0 -0.094,1.604 0.648,2.897 0.824,1.439 1.879,2.08 1.879,2.08 z"
             style="fill:#333333;fill-opacity:1;fill-rule:evenodd;stroke:none"
             id="path104"
             inkscape:connector-curvature="0" /></g><g
           id="g106"
           transform="translate(371.5112,22.4805)"><path
             d="m 0,0 c -0.266,0.172 -0.291,0.584 -0.5,0.854 -0.209,0.277 -0.262,0.111 -0.74,0.111 -0.479,0 -0.492,0.226 -0.627,0.344 -0.137,0.121 -0.201,-0.366 -0.201,-0.366 0,0 0.088,-0.406 0.601,-0.435 0.51,-0.029 0.498,0.221 0.717,-0.238 0.221,-0.465 0.656,-0.817 0.656,-0.817 0,0 0.362,0.371 0.094,0.547"
             style="fill:#333333;fill-opacity:1;fill-rule:evenodd;stroke:none"
             id="path108"
             inkscape:connector-curvature="0" /></g><g
           id="g110"
           transform="translate(292.2847,18.1914)"><path
             d="m 0,0 c -1.045,0 -1.562,-1.094 -1.562,-2.043 0,-0.934 0.517,-2.025 1.562,-2.025 1.098,0 1.572,1.115 1.572,2.095 C 1.572,-1 1.072,0 0,0 m 3.582,-4.707 c 0,-0.672 -0.422,-1.113 -1.008,-1.113 -0.553,0 -0.875,0.3 -1.002,0.836 C 1.195,-5.6 0.418,-5.9 -0.266,-5.9 c -2.021,0 -3.302,1.871 -3.302,3.769 0,1.957 1.072,3.975 3.234,3.975 0.695,0 1.377,-0.242 1.906,-0.699 v 2.734 c 0,0.668 0.418,1.109 1.002,1.109 0.586,0 1.008,-0.441 1.008,-1.109 z"
             style="fill:#333333;fill-opacity:1;fill-rule:nonzero;stroke:none"
             id="path112"
             inkscape:connector-curvature="0" /></g><g
           id="g114"
           transform="translate(301.7729,16.8301)"><path
             d="M 0,0 C -0.109,0.879 -0.668,1.529 -1.604,1.529 -2.494,1.529 -3.096,0.85 -3.191,0 Z m -3.152,-1.34 c 0.144,-0.984 0.963,-1.449 1.902,-1.449 1.027,0 1.736,0.805 2.27,0.805 0.429,0 0.816,-0.426 0.816,-0.866 0,-0.863 -1.779,-1.689 -3.272,-1.689 -2.259,0 -3.761,1.641 -3.761,3.857 0,2.036 1.476,3.887 3.593,3.887 2.174,0 3.61,-1.976 3.61,-3.652 0,-0.598 -0.266,-0.893 -0.877,-0.893 z"
             style="fill:#333333;fill-opacity:1;fill-rule:nonzero;stroke:none"
             id="path116"
             inkscape:connector-curvature="0" /></g><g
           id="g118"
           transform="translate(308.7144,17.6934)"><path
             d="m 0,0 c -0.377,0 -1.143,0.59 -1.799,0.59 -0.361,0 -0.683,-0.17 -0.683,-0.565 0,-0.933 3.484,-0.793 3.484,-3.078 0,-1.336 -1.127,-2.349 -2.859,-2.349 -1.127,0 -2.797,0.634 -2.797,1.541 0,0.304 0.304,0.886 0.861,0.886 0.781,0 1.129,-0.677 2.074,-0.677 0.615,0 0.797,0.197 0.797,0.574 0,0.92 -3.482,0.779 -3.482,3.078 0,1.393 1.129,2.342 2.718,2.342 0.987,0 2.506,-0.461 2.506,-1.453 C 0.82,0.434 0.473,0 0,0"
             style="fill:#333333;fill-opacity:1;fill-rule:nonzero;stroke:none"
             id="path120"
             inkscape:connector-curvature="0" /></g><g
           id="g122"
           transform="translate(310.3979,18.832)"><path
             d="M 0,0 C 0,0.67 0.418,1.119 1.004,1.119 1.588,1.119 2.006,0.67 2.006,0 V -5.348 C 2.006,-6.021 1.588,-6.461 1.004,-6.461 0.418,-6.461 0,-6.021 0,-5.348 Z m 2.133,3.027 c 0,-0.629 -0.5,-1.158 -1.129,-1.158 -0.6,0 -1.129,0.545 -1.129,1.158 0,0.571 0.529,1.1 1.129,1.1 0.598,0 1.129,-0.512 1.129,-1.1"
             style="fill:#333333;fill-opacity:1;fill-rule:nonzero;stroke:none"
             id="path124"
             inkscape:connector-curvature="0" /></g><g
           id="g126"
           transform="translate(316.7925,18.1914)"><path
             d="m 0,0 c -1.043,0 -1.557,-1.084 -1.557,-2.018 0,-1.074 0.514,-2.05 1.557,-2.05 1.072,0 1.576,1.007 1.576,1.984 C 1.576,-1.113 1.104,0 0,0 m 3.584,-5.152 c 0,-2.412 -1.576,-3.629 -3.861,-3.629 -0.821,0 -3.164,0.408 -3.164,1.508 0,0.375 0.418,0.878 0.812,0.878 0.639,0 1.35,-0.623 2.506,-0.623 0.978,0 1.699,0.563 1.699,1.588 v 0.473 H 1.549 C 1.133,-5.57 0.447,-5.9 -0.471,-5.9 c -2.103,0 -3.093,1.845 -3.093,3.841 0,2.02 1.277,3.903 3.3,3.903 0.686,0 1.461,-0.307 1.84,-0.918 0.127,0.525 0.445,0.834 1.004,0.834 0.584,0 1.004,-0.449 1.004,-1.119 z"
             style="fill:#333333;fill-opacity:1;fill-rule:nonzero;stroke:none"
             id="path128"
             inkscape:connector-curvature="0" /></g><g
           id="g130"
           transform="translate(321.519,18.832)"><path
             d="m 0,0 c 0,0.67 0.416,1.119 1.002,1.119 0.514,0 0.852,-0.277 0.918,-0.744 0.393,0.547 0.988,0.828 1.937,0.828 1.575,0 2.745,-1.004 2.745,-2.701 v -3.85 c 0,-0.673 -0.413,-1.113 -1,-1.113 -0.582,0 -1.006,0.44 -1.006,1.113 v 3.496 c 0,0.934 -0.582,1.379 -1.309,1.379 -0.824,0 -1.281,-0.599 -1.281,-1.379 v -3.496 c 0,-0.673 -0.42,-1.113 -1.004,-1.113 C 0.416,-6.461 0,-6.021 0,-5.348 Z"
             style="fill:#333333;fill-opacity:1;fill-rule:nonzero;stroke:none"
             id="path132"
             inkscape:connector-curvature="0" /></g><g
           id="g134"
           transform="translate(334.0308,16.8301)"><path
             d="M 0,0 C -0.111,0.879 -0.67,1.529 -1.604,1.529 -2.496,1.529 -3.096,0.85 -3.191,0 Z m -3.15,-1.34 c 0.14,-0.984 0.961,-1.449 1.896,-1.449 1.033,0 1.742,0.805 2.27,0.805 0.433,0 0.826,-0.426 0.826,-0.866 0,-0.863 -1.787,-1.689 -3.278,-1.689 -2.259,0 -3.761,1.641 -3.761,3.857 0,2.036 1.476,3.887 3.593,3.887 2.176,0 3.61,-1.976 3.61,-3.652 0,-0.598 -0.266,-0.893 -0.877,-0.893 z"
             style="fill:#333333;fill-opacity:1;fill-rule:nonzero;stroke:none"
             id="path136"
             inkscape:connector-curvature="0" /></g><g
           id="g138"
           transform="translate(340.0229,18.1914)"><path
             d="m 0,0 c -1.045,0 -1.561,-1.094 -1.561,-2.043 0,-0.934 0.516,-2.025 1.561,-2.025 1.098,0 1.574,1.115 1.574,2.095 C 1.574,-1 1.072,0 0,0 m 3.58,-4.707 c 0,-0.672 -0.418,-1.113 -1.006,-1.113 -0.554,0 -0.871,0.3 -1,0.836 C 1.195,-5.6 0.418,-5.9 -0.266,-5.9 c -2.019,0 -3.3,1.871 -3.3,3.769 0,1.957 1.072,3.975 3.234,3.975 0.693,0 1.377,-0.242 1.906,-0.699 v 2.734 c 0,0.668 0.418,1.109 1,1.109 0.588,0 1.006,-0.441 1.006,-1.109 z"
             style="fill:#333333;fill-opacity:1;fill-rule:nonzero;stroke:none"
             id="path140"
             inkscape:connector-curvature="0" /></g><g
           id="g142"
           transform="translate(352.062,14.123)"><path
             d="m 0,0 c 1.045,0 1.559,1.092 1.559,2.025 0,0.95 -0.514,2.043 -1.559,2.043 -1.072,0 -1.574,-1 -1.574,-1.972 C -1.574,1.115 -1.098,0 0,0 m -3.584,7.947 c 0,0.668 0.422,1.11 1.008,1.11 0.586,0 1.002,-0.442 1.002,-1.11 V 5.213 c 0.531,0.457 1.211,0.699 1.908,0.699 2.16,0 3.232,-2.017 3.232,-3.976 0,-1.897 -1.277,-3.768 -3.302,-3.768 -0.682,0 -1.463,0.301 -1.838,0.916 -0.127,-0.535 -0.446,-0.836 -1.002,-0.836 -0.586,0 -1.008,0.44 -1.008,1.113 z"
             style="fill:#333333;fill-opacity:1;fill-rule:nonzero;stroke:none"
             id="path144"
             inkscape:connector-curvature="0" /></g><g
           id="g146"
           transform="translate(355.978,18.5723)"><path
             d="m 0,0 c -0.057,0.15 -0.1,0.307 -0.1,0.514 0,0.506 0.53,0.865 0.95,0.865 0.484,0 0.834,-0.268 1.004,-0.709 L 3.229,-3.111 4.709,0.67 C 4.877,1.111 5.223,1.379 5.713,1.379 6.131,1.379 6.658,1.02 6.658,0.514 6.658,0.307 6.631,0.15 6.562,0 L 3.203,-8.363 C 3.041,-8.779 2.73,-9.162 2.256,-9.162 c -0.682,0 -1.043,0.437 -1.043,0.863 0,0.203 0.057,0.408 0.121,0.59 l 0.881,2.176 z"
             style="fill:#333333;fill-opacity:1;fill-rule:nonzero;stroke:none"
             id="path148"
             inkscape:connector-curvature="0" /></g></g></g><g
       id="g158"
       transform="translate(162.1582,755.46)"
       inkscape:export-filename="/home/gruinelli/0.png"
       inkscape:export-xdpi="359.76999"
       inkscape:export-ydpi="359.76999"><path
         d="m 0,0 c -13.789,0 -25.006,-10.29 -25.006,-22.937 0,-12.647 11.217,-22.936 25.006,-22.936 13.788,0 25.005,10.289 25.005,22.936 C 25.005,-10.29 13.788,0 0,0 m 0,-51.644 c -16.97,0 -30.776,12.878 -30.776,28.707 0,15.829 13.806,28.708 30.776,28.708 16.97,0 30.776,-12.879 30.776,-28.708 C 30.776,-38.766 16.97,-51.644 0,-51.644"
         style="fill:#333333;fill-opacity:1;fill-rule:nonzero;stroke:none"
         id="path160"
         inkscape:connector-curvature="0" /></g><g
       id="g162"
       transform="translate(161.6777,702.1143)"
       inkscape:export-filename="/home/gruinelli/0.png"
       inkscape:export-xdpi="359.76999"
       inkscape:export-ydpi="359.76999"><path
         d="m 0,0 c -36.582,0 -66.344,-29.762 -66.344,-66.344 0,-36.583 29.762,-66.345 66.344,-66.345 36.582,0 66.344,29.762 66.344,66.345 C 66.344,-29.762 36.582,0 0,0 m 0,-141.345 c -41.355,0 -75,33.645 -75,75.001 0,41.356 33.645,75 75,75 41.355,0 75,-33.644 75,-75 0,-41.356 -33.645,-75.001 -75,-75.001"
         style="fill:#333333;fill-opacity:1;fill-rule:nonzero;stroke:none"
         id="path164"
         inkscape:connector-curvature="0" /></g><g
       id="g166"
       transform="translate(169.7393,634.6738)"
       inkscape:export-filename="/home/gruinelli/0.png"
       inkscape:export-xdpi="359.76999"
       inkscape:export-ydpi="359.76999"><path
         d="m 0,0 c 0.455,-5.202 -2.85,-9.674 -8.071,-9.674 h -0.463 c -5.221,0 -8.526,4.472 -8.071,9.674 1.013,11.606 5.102,34.442 6.688,44.561 0.331,2.107 2.97,1.683 3.229,-0.055 C -4.93,32.657 -1.013,11.606 0,0"
         style="fill:#333333;fill-opacity:1;fill-rule:nonzero;stroke:none"
         id="path168"
         inkscape:connector-curvature="0" /></g><path
       d="m 165,686 h -6 v 10 h 6 z"
       style="fill:#333333;fill-opacity:1;fill-rule:nonzero;stroke:none"
       id="path170"
       inkscape:connector-curvature="0"
       inkscape:export-filename="/home/gruinelli/0.png"
       inkscape:export-xdpi="359.76999"
       inkscape:export-ydpi="359.76999" /><g
       id="g172"
       transform="translate(128.1133,673.6558)"
       inkscape:export-filename="/home/gruinelli/0.png"
       inkscape:export-xdpi="359.76999"
       inkscape:export-ydpi="359.76999"><path
         d="m 0,0 -4.082,-4.082 -7.139,7.142 4.079,4.08 z"
         style="fill:#333333;fill-opacity:1;fill-rule:nonzero;stroke:none"
         id="path174"
         inkscape:connector-curvature="0" /></g><path
       d="m 111,632 h -10 v 6 h 10 z"
       style="fill:#333333;fill-opacity:1;fill-rule:nonzero;stroke:none"
       id="path176"
       inkscape:connector-curvature="0"
       inkscape:export-filename="/home/gruinelli/0.png"
       inkscape:export-xdpi="359.76999"
       inkscape:export-ydpi="359.76999" /><g
       id="g178"
       transform="translate(124.0317,602.2471)"
       inkscape:export-filename="/home/gruinelli/0.png"
       inkscape:export-xdpi="359.76999"
       inkscape:export-ydpi="359.76999"><path
         d="M 0,0 4.082,-4.08 -3.06,-11.222 -7.14,-7.14 Z"
         style="fill:#333333;fill-opacity:1;fill-rule:nonzero;stroke:none"
         id="path180"
         inkscape:connector-curvature="0" /></g><path
       d="m 159,585 h 6 v -10 h -6 z"
       style="fill:#333333;fill-opacity:1;fill-rule:nonzero;stroke:none"
       id="path182"
       inkscape:connector-curvature="0"
       inkscape:export-filename="/home/gruinelli/0.png"
       inkscape:export-xdpi="359.76999"
       inkscape:export-ydpi="359.76999" /><g
       id="g184"
       transform="translate(195.4409,598.167)"
       inkscape:export-filename="/home/gruinelli/0.png"
       inkscape:export-xdpi="359.76999"
       inkscape:export-ydpi="359.76999"><path
         d="M 0,0 4.08,4.08 11.221,-3.06 7.14,-7.142 Z"
         style="fill:#333333;fill-opacity:1;fill-rule:nonzero;stroke:none"
         id="path186"
         inkscape:connector-curvature="0" /></g><path
       d="m 212,638 h 11 v -6 h -11 z"
       style="fill:#333333;fill-opacity:1;fill-rule:nonzero;stroke:none"
       id="path188"
       inkscape:connector-curvature="0"
       inkscape:export-filename="/home/gruinelli/0.png"
       inkscape:export-xdpi="359.76999"
       inkscape:export-ydpi="359.76999" /><g
       id="g190"
       transform="translate(199.521,669.5742)"
       inkscape:export-filename="/home/gruinelli/0.png"
       inkscape:export-xdpi="359.76999"
       inkscape:export-ydpi="359.76999"><path
         d="m 0,0 -4.08,4.082 7.14,7.14 4.081,-4.08 z"
         style="fill:#333333;fill-opacity:1;fill-rule:nonzero;stroke:none"
         id="path192"
         inkscape:connector-curvature="0" /></g><g
       id="g194"
       transform="translate(110.0278,702.1597)"
       inkscape:export-filename="/home/gruinelli/0.png"
       inkscape:export-xdpi="359.76999"
       inkscape:export-ydpi="359.76999"><path
         d="m 0,0 c -1.838,1.84 -4.567,1.981 -6.407,0.141 l -7.994,-7.994 c -1.839,-1.838 -1.699,-4.567 0.141,-6.407 1.612,-1.611 4.053,-1.743 6.069,-0.345 l 4.617,-4.617 8.536,8.537 -4.615,4.617 C 1.744,-4.052 1.612,-1.61 0,0"
         style="fill:#333333;fill-opacity:1;fill-rule:nonzero;stroke:none"
         id="path196"
         inkscape:connector-curvature="0" /></g><path
       d="m 172,703 h -19 v 25 h 19 z"
       style="fill:#333333;fill-opacity:1;fill-rule:nonzero;stroke:none"
       id="path198"
       inkscape:connector-curvature="0"
       inkscape:export-filename="/home/gruinelli/0.png"
       inkscape:export-xdpi="359.76999"
       inkscape:export-ydpi="359.76999" /><g
       id="g200"
       transform="translate(179,724.4429)"
       inkscape:export-filename="/home/gruinelli/0.png"
       inkscape:export-xdpi="359.76999"
       inkscape:export-ydpi="359.76999"><path
         d="M 0,0 C 0,-0.797 -0.646,-1.443 -1.442,-1.443 H -31.558 C -32.354,-1.443 -33,-0.797 -33,0 v 16.114 c 0,0.797 0.646,1.443 1.442,1.443 H -1.442 C -0.646,17.557 0,16.911 0,16.114 Z"
         style="fill:#333333;fill-opacity:1;fill-rule:nonzero;stroke:none"
         id="path202"
         inkscape:connector-curvature="0" /></g><g
       id="g204"
       transform="translate(349.5591,701.334)"
       inkscape:export-filename="/home/gruinelli/1.png"
       inkscape:export-xdpi="359.76999"
       inkscape:export-ydpi="359.76999"><path
         d="m 0,0 c -1.801,1.803 -4.476,1.941 -6.278,0.139 l -7.834,-7.834 c -1.802,-1.802 -1.665,-4.476 0.138,-6.28 1.579,-1.578 3.972,-1.707 5.948,-0.338 l 4.524,-4.524 8.365,8.366 -4.523,4.525 C 1.709,-3.971 1.58,-1.578 0,0"
         style="fill:#333333;fill-opacity:1;fill-rule:nonzero;stroke:none"
         id="path206"
         inkscape:connector-curvature="0" /></g><g
       id="g208"
       transform="translate(400.644,753.5654)"
       inkscape:export-filename="/home/gruinelli/1.png"
       inkscape:export-xdpi="359.76999"
       inkscape:export-ydpi="359.76999"><path
         d="m 0,0 c -13.512,0 -24.504,-10.083 -24.504,-22.478 0,-12.392 10.992,-22.475 24.504,-22.475 13.511,0 24.504,10.083 24.504,22.475 C 24.504,-10.083 13.511,0 0,0 m 0,-50.607 c -16.629,0 -30.159,12.619 -30.159,28.129 0,15.512 13.53,28.132 30.159,28.132 16.629,0 30.158,-12.62 30.158,-28.132 0,-15.51 -13.529,-28.129 -30.158,-28.129"
         style="fill:#333333;fill-opacity:1;fill-rule:nonzero;stroke:none"
         id="path210"
         inkscape:connector-curvature="0" /></g><g
       id="g212"
       transform="translate(400.1729,701.29)"
       inkscape:export-filename="/home/gruinelli/1.png"
       inkscape:export-xdpi="359.76999"
       inkscape:export-ydpi="359.76999"><path
         d="m 0,0 c -35.848,0 -65.013,-29.165 -65.013,-65.014 0,-35.848 29.165,-65.014 65.013,-65.014 35.848,0 65.014,29.166 65.014,65.014 C 65.014,-29.165 35.848,0 0,0 m 0,-138.51 c -40.526,0 -73.495,32.97 -73.495,73.496 0,40.527 32.969,73.496 73.495,73.496 40.525,0 73.495,-32.969 73.495,-73.496 0,-40.526 -32.97,-73.496 -73.495,-73.496"
         style="fill:#333333;fill-opacity:1;fill-rule:nonzero;stroke:none"
         id="path214"
         inkscape:connector-curvature="0" /></g><path
       d="m 404,686 h -7 v 10 h 7 z"
       style="fill:#333333;fill-opacity:1;fill-rule:nonzero;stroke:none"
       id="path216"
       inkscape:connector-curvature="0"
       inkscape:export-filename="/home/gruinelli/1.png"
       inkscape:export-xdpi="359.76999"
       inkscape:export-ydpi="359.76999" /><g
       id="g218"
       transform="translate(367.2822,673.4023)"
       inkscape:export-filename="/home/gruinelli/1.png"
       inkscape:export-xdpi="359.76999"
       inkscape:export-ydpi="359.76999"><path
         d="m 0,0 -4,-4 -6.997,6.998 3.998,3.998 z"
         style="fill:#333333;fill-opacity:1;fill-rule:nonzero;stroke:none"
         id="path220"
         inkscape:connector-curvature="0" /></g><path
       d="m 352,633 h -11 v 6 h 11 z"
       style="fill:#333333;fill-opacity:1;fill-rule:nonzero;stroke:none"
       id="path222"
       inkscape:connector-curvature="0"
       inkscape:export-filename="/home/gruinelli/1.png"
       inkscape:export-xdpi="359.76999"
       inkscape:export-ydpi="359.76999" /><g
       id="g224"
       transform="translate(363.2822,603.4258)"
       inkscape:export-filename="/home/gruinelli/1.png"
       inkscape:export-xdpi="359.76999"
       inkscape:export-ydpi="359.76999"><path
         d="m 0,0 4,-3.998 -6.999,-6.998 -3.998,3.999 z"
         style="fill:#333333;fill-opacity:1;fill-rule:nonzero;stroke:none"
         id="path226"
         inkscape:connector-curvature="0" /></g><path
       d="m 397,586 h 7 v -9 h -7 z"
       style="fill:#333333;fill-opacity:1;fill-rule:nonzero;stroke:none"
       id="path228"
       inkscape:connector-curvature="0"
       inkscape:export-filename="/home/gruinelli/1.png"
       inkscape:export-xdpi="359.76999"
       inkscape:export-ydpi="359.76999" /><g
       id="g230"
       transform="translate(433.2588,599.4277)"
       inkscape:export-filename="/home/gruinelli/1.png"
       inkscape:export-xdpi="359.76999"
       inkscape:export-ydpi="359.76999"><path
         d="m 0,0 3.998,3.998 6.998,-6.997 -4,-3.999 z"
         style="fill:#333333;fill-opacity:1;fill-rule:nonzero;stroke:none"
         id="path232"
         inkscape:connector-curvature="0" /></g><path
       d="m 450,639 h 10 v -6 h -10 z"
       style="fill:#333333;fill-opacity:1;fill-rule:nonzero;stroke:none"
       id="path234"
       inkscape:connector-curvature="0"
       inkscape:export-filename="/home/gruinelli/1.png"
       inkscape:export-xdpi="359.76999"
       inkscape:export-ydpi="359.76999" /><g
       id="g236"
       transform="translate(437.2568,669.4023)"
       inkscape:export-filename="/home/gruinelli/1.png"
       inkscape:export-xdpi="359.76999"
       inkscape:export-ydpi="359.76999"><path
         d="m 0,0 -3.998,4 6.996,6.996 4,-3.998 z"
         style="fill:#333333;fill-opacity:1;fill-rule:nonzero;stroke:none"
         id="path238"
         inkscape:connector-curvature="0" /></g><path
       d="m 411,703 h -19 v 23 h 19 z"
       style="fill:#333333;fill-opacity:1;fill-rule:nonzero;stroke:none"
       id="path240"
       inkscape:connector-curvature="0"
       inkscape:export-filename="/home/gruinelli/1.png"
       inkscape:export-xdpi="359.76999"
       inkscape:export-ydpi="359.76999" /><g
       id="g242"
       transform="translate(417,724.4131)"
       inkscape:export-filename="/home/gruinelli/1.png"
       inkscape:export-xdpi="359.76999"
       inkscape:export-ydpi="359.76999"><path
         d="M 0,0 C 0,-0.78 -0.633,-1.413 -1.413,-1.413 H -30.587 C -31.367,-1.413 -32,-0.78 -32,0 v 15.174 c 0,0.78 0.633,1.413 1.413,1.413 H -1.413 C -0.633,16.587 0,15.954 0,15.174 Z"
         style="fill:#333333;fill-opacity:1;fill-rule:nonzero;stroke:none"
         id="path244"
         inkscape:connector-curvature="0" /></g><g
       id="g246"
       transform="translate(431.7734,668.6572)"
       inkscape:export-filename="/home/gruinelli/1.png"
       inkscape:export-xdpi="359.76999"
       inkscape:export-ydpi="359.76999"><path
         d="m 0,0 -30.773,-31.187 v 44.263 c 12,0 22.936,-4.975 30.922,-13.006 C 0.179,0.043 -0.016,0.028 0,0"
         style="fill:#3771c8;fill-opacity:1;fill-rule:nonzero;stroke:none"
         id="path248"
         inkscape:connector-curvature="0" /></g><g
       id="g250"
       transform="translate(406.9297,630.5947)"
       inkscape:export-filename="/home/gruinelli/1.png"
       inkscape:export-xdpi="359.76999"
       inkscape:export-ydpi="359.76999"><path
         d="m 0,0 c -3.289,-3.92 -8.506,-4.555 -12.123,-0.937 l -0.32,0.319 c -3.619,3.619 -2.987,8.833 0.936,12.123 8.743,7.34 27.314,20.245 35.423,26.158 1.689,1.231 3.271,-0.85 2.246,-2.232 C 19.168,26.003 7.341,8.746 0,0"
         style="fill:#333333;fill-opacity:1;fill-rule:nonzero;stroke:none"
         id="path252"
         inkscape:connector-curvature="0" /></g><g
       id="g254"
       transform="translate(586.9639,702.0645)"
       inkscape:export-filename="/home/gruinelli/3.png"
       inkscape:export-xdpi="359.76999"
       inkscape:export-ydpi="359.76999"><path
         d="m 0,0 c -1.834,1.836 -4.557,1.977 -6.393,0.141 l -7.975,-7.976 c -1.834,-1.834 -1.694,-4.557 0.14,-6.393 1.609,-1.606 4.044,-1.738 6.056,-0.343 l 4.607,-4.607 8.516,8.518 -4.604,4.606 C 1.74,-4.042 1.608,-1.606 0,0"
         style="fill:#333333;fill-opacity:1;fill-rule:nonzero;stroke:none"
         id="path256"
         inkscape:connector-curvature="0" /></g><g
       id="g258"
       transform="translate(638.9746,755.2422)"
       inkscape:export-filename="/home/gruinelli/3.png"
       inkscape:export-xdpi="359.76999"
       inkscape:export-ydpi="359.76999"><path
         d="m 0,0 c -13.757,0 -24.948,-10.266 -24.948,-22.884 0,-12.618 11.191,-22.884 24.948,-22.884 13.757,0 24.948,10.266 24.948,22.884 C 24.948,-10.266 13.757,0 0,0 m 0,-51.524 c -16.931,0 -30.705,12.847 -30.705,28.64 0,15.793 13.774,28.642 30.705,28.642 16.931,0 30.705,-12.849 30.705,-28.642 0,-15.793 -13.774,-28.64 -30.705,-28.64"
         style="fill:#333333;fill-opacity:1;fill-rule:nonzero;stroke:none"
         id="path260"
         inkscape:connector-curvature="0" /></g><g
       id="g262"
       transform="translate(638.4951,702.0195)"
       inkscape:export-filename="/home/gruinelli/3.png"
       inkscape:export-xdpi="359.76999"
       inkscape:export-ydpi="359.76999"><path
         d="m 0,0 c -36.498,0 -66.191,-29.693 -66.191,-66.191 0,-36.498 29.693,-66.193 66.191,-66.193 36.498,0 66.191,29.695 66.191,66.193 C 66.191,-29.693 36.498,0 0,0 m 0,-141.02 c -41.26,0 -74.827,33.568 -74.827,74.829 0,41.26 33.567,74.827 74.827,74.827 41.26,0 74.827,-33.567 74.827,-74.827 0,-41.261 -33.567,-74.829 -74.827,-74.829"
         style="fill:#333333;fill-opacity:1;fill-rule:nonzero;stroke:none"
         id="path264"
         inkscape:connector-curvature="0" /></g><path
       d="m 642,686 h -6 v 10 h 6 z"
       style="fill:#333333;fill-opacity:1;fill-rule:nonzero;stroke:none"
       id="path266"
       inkscape:connector-curvature="0"
       inkscape:export-filename="/home/gruinelli/3.png"
       inkscape:export-xdpi="359.76999"
       inkscape:export-ydpi="359.76999" /><g
       id="g268"
       transform="translate(605.0078,673.626)"
       inkscape:export-filename="/home/gruinelli/3.png"
       inkscape:export-xdpi="359.76999"
       inkscape:export-ydpi="359.76999"><path
         d="m 0,0 -4.072,-4.071 -7.123,7.125 4.07,4.07 z"
         style="fill:#333333;fill-opacity:1;fill-rule:nonzero;stroke:none"
         id="path270"
         inkscape:connector-curvature="0" /></g><path
       d="m 589,632 h -11 v 6 h 11 z"
       style="fill:#333333;fill-opacity:1;fill-rule:nonzero;stroke:none"
       id="path272"
       inkscape:connector-curvature="0"
       inkscape:export-filename="/home/gruinelli/3.png"
       inkscape:export-xdpi="359.76999"
       inkscape:export-ydpi="359.76999" /><g
       id="g274"
       transform="translate(600.9355,602.3818)"
       inkscape:export-filename="/home/gruinelli/3.png"
       inkscape:export-xdpi="359.76999"
       inkscape:export-ydpi="359.76999"><path
         d="m 0,0 4.072,-4.07 -7.125,-7.125 -4.07,4.072 z"
         style="fill:#333333;fill-opacity:1;fill-rule:nonzero;stroke:none"
         id="path276"
         inkscape:connector-curvature="0" /></g><path
       d="m 636,585 h 6 v -10 h -6 z"
       style="fill:#333333;fill-opacity:1;fill-rule:nonzero;stroke:none"
       id="path278"
       inkscape:connector-curvature="0"
       inkscape:export-filename="/home/gruinelli/3.png"
       inkscape:export-xdpi="359.76999"
       inkscape:export-ydpi="359.76999" /><g
       id="g280"
       transform="translate(672.1807,598.3115)"
       inkscape:export-filename="/home/gruinelli/3.png"
       inkscape:export-xdpi="359.76999"
       inkscape:export-ydpi="359.76999"><path
         d="M 0,0 4.07,4.07 11.195,-3.053 7.123,-7.125 Z"
         style="fill:#333333;fill-opacity:1;fill-rule:nonzero;stroke:none"
         id="path282"
         inkscape:connector-curvature="0" /></g><path
       d="m 689,638 h 10 v -6 h -10 z"
       style="fill:#333333;fill-opacity:1;fill-rule:nonzero;stroke:none"
       id="path284"
       inkscape:connector-curvature="0"
       inkscape:export-filename="/home/gruinelli/3.png"
       inkscape:export-xdpi="359.76999"
       inkscape:export-ydpi="359.76999" /><g
       id="g286"
       transform="translate(676.251,669.5547)"
       inkscape:export-filename="/home/gruinelli/3.png"
       inkscape:export-xdpi="359.76999"
       inkscape:export-ydpi="359.76999"><path
         d="m 0,0 -4.07,4.071 7.123,7.124 4.072,-4.07 z"
         style="fill:#333333;fill-opacity:1;fill-rule:nonzero;stroke:none"
         id="path288"
         inkscape:connector-curvature="0" /></g><path
       d="m 649,703 h -19 v 24 h 19 z"
       style="fill:#333333;fill-opacity:1;fill-rule:nonzero;stroke:none"
       id="path290"
       inkscape:connector-curvature="0"
       inkscape:export-filename="/home/gruinelli/3.png"
       inkscape:export-xdpi="359.76999"
       inkscape:export-ydpi="359.76999" /><g
       id="g292"
       transform="translate(656,724.4395)"
       inkscape:export-filename="/home/gruinelli/3.png"
       inkscape:export-xdpi="359.76999"
       inkscape:export-ydpi="359.76999"><path
         d="M 0,0 C 0,-0.795 -0.645,-1.439 -1.439,-1.439 H -31.561 C -32.355,-1.439 -33,-0.795 -33,0 v 16.121 c 0,0.795 0.645,1.44 1.439,1.44 H -1.439 C -0.645,17.561 0,16.916 0,16.121 Z"
         style="fill:#333333;fill-opacity:1;fill-rule:nonzero;stroke:none"
         id="path294"
         inkscape:connector-curvature="0" /></g><g
       id="g296"
       transform="translate(684,635)"
       style="fill:#3771c8"
       inkscape:export-filename="/home/gruinelli/3.png"
       inkscape:export-xdpi="359.76999"
       inkscape:export-ydpi="359.76999"><path
         d="m 0,0 h -45 v 45.894 c 13,0 23.309,-5.067 31.441,-13.243 0.03,-0.029 0.361,-0.043 0.374,-0.072 C -5.153,24.477 0,13.321 0,1.001 Z"
         style="fill:#3771c8;fill-opacity:1;fill-rule:nonzero;stroke:none"
         id="path298"
         inkscape:connector-curvature="0" /></g><g
       id="g300"
       transform="translate(638.7129,627.373)"
       inkscape:export-filename="/home/gruinelli/3.png"
       inkscape:export-xdpi="359.76999"
       inkscape:export-ydpi="359.76999"><path
         d="m 0,0 c -5.189,-0.455 -9.713,2.844 -9.713,8.053 v 0.461 c 0,5.21 4.518,8.507 9.711,8.053 C 11.576,15.557 34.391,11.478 44.486,9.896 46.587,9.565 46.151,6.931 44.417,6.673 32.596,4.921 11.58,1.011 0,0"
         style="fill:#333333;fill-opacity:1;fill-rule:nonzero;stroke:none"
         id="path302"
         inkscape:connector-curvature="0" /></g><g
       id="g304"
       transform="translate(108.8149,451.834)"
       inkscape:export-filename="/home/gruinelli/4.png"
       inkscape:export-xdpi="359.76999"
       inkscape:export-ydpi="359.76999"><path
         d="m 0,0 c -1.834,1.835 -4.557,1.976 -6.393,0.141 l -7.975,-7.976 c -1.835,-1.834 -1.695,-4.557 0.14,-6.393 1.608,-1.606 4.044,-1.739 6.056,-0.344 l 4.606,-4.606 8.516,8.518 -4.604,4.606 C 1.74,-4.042 1.608,-1.606 0,0"
         style="fill:#333333;fill-opacity:1;fill-rule:nonzero;stroke:none"
         id="path306"
         inkscape:connector-curvature="0" /></g><g
       id="g308"
       transform="translate(160.8252,505.0112)"
       inkscape:export-filename="/home/gruinelli/4.png"
       inkscape:export-xdpi="359.76999"
       inkscape:export-ydpi="359.76999"><path
         d="m 0,0 c -13.757,0 -24.948,-10.266 -24.948,-22.884 0,-12.618 11.191,-22.883 24.948,-22.883 13.756,0 24.948,10.265 24.948,22.883 C 24.948,-10.266 13.756,0 0,0 m 0,-51.524 c -16.931,0 -30.706,12.848 -30.706,28.64 0,15.793 13.775,28.642 30.706,28.642 16.93,0 30.705,-12.849 30.705,-28.642 0,-15.792 -13.775,-28.64 -30.705,-28.64"
         style="fill:#333333;fill-opacity:1;fill-rule:nonzero;stroke:none"
         id="path310"
         inkscape:connector-curvature="0" /></g><g
       id="g312"
       transform="translate(160.3457,451.7891)"
       inkscape:export-filename="/home/gruinelli/4.png"
       inkscape:export-xdpi="359.76999"
       inkscape:export-ydpi="359.76999"><path
         d="m 0,0 c -36.498,0 -66.191,-29.693 -66.191,-66.191 0,-36.498 29.693,-66.194 66.191,-66.194 36.498,0 66.191,29.696 66.191,66.194 C 66.191,-29.693 36.498,0 0,0 m 0,-141.02 c -41.26,0 -74.827,33.569 -74.827,74.829 0,41.259 33.567,74.827 74.827,74.827 41.26,0 74.827,-33.568 74.827,-74.827 0,-41.26 -33.567,-74.829 -74.827,-74.829"
         style="fill:#333333;fill-opacity:1;fill-rule:nonzero;stroke:none"
         id="path314"
         inkscape:connector-curvature="0" /></g><path
       d="m 164,436 h -6 v 10 h 6 z"
       style="fill:#333333;fill-opacity:1;fill-rule:nonzero;stroke:none"
       id="path316"
       inkscape:connector-curvature="0"
       inkscape:export-filename="/home/gruinelli/4.png"
       inkscape:export-xdpi="359.76999"
       inkscape:export-ydpi="359.76999" /><g
       id="g318"
       transform="translate(126.8584,423.3955)"
       inkscape:export-filename="/home/gruinelli/4.png"
       inkscape:export-xdpi="359.76999"
       inkscape:export-ydpi="359.76999"><path
         d="m 0,0 -4.072,-4.071 -7.123,7.125 4.07,4.07 z"
         style="fill:#333333;fill-opacity:1;fill-rule:nonzero;stroke:none"
         id="path320"
         inkscape:connector-curvature="0" /></g><path
       d="m 111,382 h -11 v 6 h 11 z"
       style="fill:#333333;fill-opacity:1;fill-rule:nonzero;stroke:none"
       id="path322"
       inkscape:connector-curvature="0"
       inkscape:export-filename="/home/gruinelli/4.png"
       inkscape:export-xdpi="359.76999"
       inkscape:export-ydpi="359.76999" /><g
       id="g324"
       transform="translate(122.7866,352.1504)"
       inkscape:export-filename="/home/gruinelli/4.png"
       inkscape:export-xdpi="359.76999"
       inkscape:export-ydpi="359.76999"><path
         d="m 0,0 4.072,-4.07 -7.125,-7.125 -4.071,4.072 z"
         style="fill:#333333;fill-opacity:1;fill-rule:nonzero;stroke:none"
         id="path326"
         inkscape:connector-curvature="0" /></g><path
       d="m 158,335 h 6 v -10 h -6 z"
       style="fill:#333333;fill-opacity:1;fill-rule:nonzero;stroke:none"
       id="path328"
       inkscape:connector-curvature="0"
       inkscape:export-filename="/home/gruinelli/4.png"
       inkscape:export-xdpi="359.76999"
       inkscape:export-ydpi="359.76999" /><g
       id="g330"
       transform="translate(194.0312,348.0801)"
       inkscape:export-filename="/home/gruinelli/4.png"
       inkscape:export-xdpi="359.76999"
       inkscape:export-ydpi="359.76999"><path
         d="M 0,0 4.07,4.07 11.195,-3.053 7.124,-7.125 Z"
         style="fill:#333333;fill-opacity:1;fill-rule:nonzero;stroke:none"
         id="path332"
         inkscape:connector-curvature="0" /></g><path
       d="m 211,388 h 10 v -6 h -10 z"
       style="fill:#333333;fill-opacity:1;fill-rule:nonzero;stroke:none"
       id="path334"
       inkscape:connector-curvature="0"
       inkscape:export-filename="/home/gruinelli/4.png"
       inkscape:export-xdpi="359.76999"
       inkscape:export-ydpi="359.76999" /><g
       id="g336"
       transform="translate(198.1016,419.3242)"
       inkscape:export-filename="/home/gruinelli/4.png"
       inkscape:export-xdpi="359.76999"
       inkscape:export-ydpi="359.76999"><path
         d="m 0,0 -4.07,4.071 7.123,7.124 4.072,-4.07 z"
         style="fill:#333333;fill-opacity:1;fill-rule:nonzero;stroke:none"
         id="path338"
         inkscape:connector-curvature="0" /></g><path
       d="m 171,453 h -19 v 24 h 19 z"
       style="fill:#333333;fill-opacity:1;fill-rule:nonzero;stroke:none"
       id="path340"
       inkscape:connector-curvature="0"
       inkscape:export-filename="/home/gruinelli/4.png"
       inkscape:export-xdpi="359.76999"
       inkscape:export-ydpi="359.76999" /><g
       id="g342"
       transform="translate(178,474.439)"
       inkscape:export-filename="/home/gruinelli/4.png"
       inkscape:export-xdpi="359.76999"
       inkscape:export-ydpi="359.76999"><path
         d="M 0,0 C 0,-0.795 -0.645,-1.439 -1.439,-1.439 H -31.561 C -32.355,-1.439 -33,-0.795 -33,0 v 16.122 c 0,0.795 0.645,1.439 1.439,1.439 H -1.439 C -0.645,17.561 0,16.917 0,16.122 Z"
         style="fill:#333333;fill-opacity:1;fill-rule:nonzero;stroke:none"
         id="path344"
         inkscape:connector-curvature="0" /></g><g
       id="g346"
       transform="translate(206,385.7695)"
       style="fill:#3771c8"
       inkscape:export-filename="/home/gruinelli/4.png"
       inkscape:export-xdpi="359.76999"
       inkscape:export-ydpi="359.76999"><path
         d="M 0,0 V -0.172 C 0,-12.521 -5.126,-23.676 -13.23,-31.754 L -45,-0.172 v 45.064 c 13,0 23.234,-5.066 31.367,-13.242 0.028,-0.027 0.398,-0.041 0.411,-0.072 C -5.189,23.477 0,12.321 0,0"
         style="fill:#3771c8;fill-opacity:1;fill-rule:nonzero;stroke:none"
         id="path348"
         inkscape:connector-curvature="0" /></g><g
       id="g350"
       transform="translate(154.4927,379.7441)"
       inkscape:export-filename="/home/gruinelli/4.png"
       inkscape:export-xdpi="359.76999"
       inkscape:export-ydpi="359.76999"><path
         d="m 0,0 c -3.992,3.349 -4.638,8.662 -0.956,12.345 l 0.327,0.325 c 3.684,3.685 8.991,3.039 12.34,-0.952 7.476,-8.904 20.612,-27.808 26.633,-36.066 1.252,-1.72 -0.865,-3.33 -2.273,-2.285 C 26.473,-19.516 8.902,-7.472 0,0"
         style="fill:#333333;fill-opacity:1;fill-rule:nonzero;stroke:none"
         id="path352"
         inkscape:connector-curvature="0" /></g><g
       id="g354"
       transform="translate(348.4692,451.834)"
       inkscape:export-filename="/home/gruinelli/4.png"
       inkscape:export-xdpi="359.76999"
       inkscape:export-ydpi="359.76999"><path
         d="m 0,0 c -1.834,1.835 -4.557,1.976 -6.393,0.141 l -7.975,-7.976 c -1.835,-1.834 -1.695,-4.557 0.14,-6.393 1.608,-1.606 4.044,-1.739 6.056,-0.344 l 4.606,-4.606 8.516,8.518 -4.604,4.606 C 1.74,-4.042 1.608,-1.607 0,0"
         style="fill:#333333;fill-opacity:1;fill-rule:nonzero;stroke:none"
         id="path356"
         inkscape:connector-curvature="0" /></g><g
       id="g358"
       transform="translate(400.4795,505.0112)"
       inkscape:export-filename="/home/gruinelli/4.png"
       inkscape:export-xdpi="359.76999"
       inkscape:export-ydpi="359.76999"><path
         d="m 0,0 c -13.757,0 -24.948,-10.266 -24.948,-22.884 0,-12.618 11.191,-22.883 24.948,-22.883 13.757,0 24.948,10.265 24.948,22.883 C 24.948,-10.266 13.757,0 0,0 m 0,-51.524 c -16.931,0 -30.706,12.848 -30.706,28.64 0,15.793 13.775,28.642 30.706,28.642 16.931,0 30.705,-12.849 30.705,-28.642 0,-15.792 -13.774,-28.64 -30.705,-28.64"
         style="fill:#333333;fill-opacity:1;fill-rule:nonzero;stroke:none"
         id="path360"
         inkscape:connector-curvature="0" /></g><g
       id="g362"
       transform="translate(400,451.7891)"
       inkscape:export-filename="/home/gruinelli/4.png"
       inkscape:export-xdpi="359.76999"
       inkscape:export-ydpi="359.76999"><path
         d="m 0,0 c -36.498,0 -66.191,-29.693 -66.191,-66.191 0,-36.498 29.693,-66.194 66.191,-66.194 36.498,0 66.191,29.696 66.191,66.194 C 66.191,-29.693 36.498,0 0,0 m 0,-141.02 c -41.26,0 -74.827,33.569 -74.827,74.829 0,41.259 33.567,74.827 74.827,74.827 41.261,0 74.827,-33.568 74.827,-74.827 0,-41.26 -33.566,-74.829 -74.827,-74.829"
         style="fill:#333333;fill-opacity:1;fill-rule:nonzero;stroke:none"
         id="path364"
         inkscape:connector-curvature="0" /></g><path
       d="m 404,436 h -6 v 10 h 6 z"
       style="fill:#333333;fill-opacity:1;fill-rule:nonzero;stroke:none"
       id="path366"
       inkscape:connector-curvature="0"
       inkscape:export-filename="/home/gruinelli/4.png"
       inkscape:export-xdpi="359.76999"
       inkscape:export-ydpi="359.76999" /><g
       id="g368"
       transform="translate(366.5127,423.3955)"
       inkscape:export-filename="/home/gruinelli/4.png"
       inkscape:export-xdpi="359.76999"
       inkscape:export-ydpi="359.76999"><path
         d="m 0,0 -4.072,-4.071 -7.123,7.125 4.07,4.07 z"
         style="fill:#333333;fill-opacity:1;fill-rule:nonzero;stroke:none"
         id="path370"
         inkscape:connector-curvature="0" /></g><path
       d="m 351,382 h -11 v 6 h 11 z"
       style="fill:#333333;fill-opacity:1;fill-rule:nonzero;stroke:none"
       id="path372"
       inkscape:connector-curvature="0"
       inkscape:export-filename="/home/gruinelli/4.png"
       inkscape:export-xdpi="359.76999"
       inkscape:export-ydpi="359.76999" /><g
       id="g374"
       transform="translate(362.4409,352.1504)"
       inkscape:export-filename="/home/gruinelli/4.png"
       inkscape:export-xdpi="359.76999"
       inkscape:export-ydpi="359.76999"><path
         d="m 0,0 4.072,-4.07 -7.125,-7.125 -4.071,4.072 z"
         style="fill:#333333;fill-opacity:1;fill-rule:nonzero;stroke:none"
         id="path376"
         inkscape:connector-curvature="0" /></g><path
       d="m 398,335 h 6 v -10 h -6 z"
       style="fill:#333333;fill-opacity:1;fill-rule:nonzero;stroke:none"
       id="path378"
       inkscape:connector-curvature="0"
       inkscape:export-filename="/home/gruinelli/4.png"
       inkscape:export-xdpi="359.76999"
       inkscape:export-ydpi="359.76999" /><g
       id="g380"
       transform="translate(433.6855,348.0801)"
       inkscape:export-filename="/home/gruinelli/4.png"
       inkscape:export-xdpi="359.76999"
       inkscape:export-ydpi="359.76999"><path
         d="M 0,0 4.07,4.07 11.195,-3.053 7.124,-7.125 Z"
         style="fill:#333333;fill-opacity:1;fill-rule:nonzero;stroke:none"
         id="path382"
         inkscape:connector-curvature="0" /></g><path
       d="m 451,388 h 10 v -6 h -10 z"
       style="fill:#333333;fill-opacity:1;fill-rule:nonzero;stroke:none"
       id="path384"
       inkscape:connector-curvature="0"
       inkscape:export-filename="/home/gruinelli/4.png"
       inkscape:export-xdpi="359.76999"
       inkscape:export-ydpi="359.76999" /><g
       id="g386"
       transform="translate(437.7559,419.3242)"
       inkscape:export-filename="/home/gruinelli/4.png"
       inkscape:export-xdpi="359.76999"
       inkscape:export-ydpi="359.76999"><path
         d="m 0,0 -4.07,4.071 7.124,7.124 4.071,-4.07 z"
         style="fill:#333333;fill-opacity:1;fill-rule:nonzero;stroke:none"
         id="path388"
         inkscape:connector-curvature="0" /></g><path
       d="m 411,453 h -19 v 24 h 19 z"
       style="fill:#333333;fill-opacity:1;fill-rule:nonzero;stroke:none"
       id="path390"
       inkscape:connector-curvature="0"
       inkscape:export-filename="/home/gruinelli/4.png"
       inkscape:export-xdpi="359.76999"
       inkscape:export-ydpi="359.76999" /><g
       id="g392"
       transform="translate(418,474.4395)"
       inkscape:export-filename="/home/gruinelli/4.png"
       inkscape:export-xdpi="359.76999"
       inkscape:export-ydpi="359.76999"><path
         d="M 0,0 C 0,-0.795 -0.645,-1.439 -1.439,-1.439 H -31.561 C -32.355,-1.439 -33,-0.795 -33,0 v 16.121 c 0,0.795 0.645,1.44 1.439,1.44 H -1.439 C -0.645,17.561 0,16.916 0,16.121 Z"
         style="fill:#333333;fill-opacity:1;fill-rule:nonzero;stroke:none"
         id="path394"
         inkscape:connector-curvature="0" /></g><g
       id="g396"
       transform="translate(446,385.7695)"
       style="fill:#3771c8"
       inkscape:export-filename="/home/gruinelli/4.png"
       inkscape:export-xdpi="359.76999"
       inkscape:export-ydpi="359.76999"><path
         d="m 0,0 v -0.172 c 0,-12.349 -5.627,-23.504 -13.73,-31.582 -0.03,-0.027 0.113,0.018 0.082,-0.027 C -21.721,-39.826 -32,-44.791 -45,-44.791 v 89.684 c 13,0 23.063,-5.067 31.193,-13.243 0.03,-0.027 0.485,-0.041 0.498,-0.071 C -5.275,23.477 0,12.321 0,0"
         style="fill:#3771c8;fill-opacity:1;fill-rule:nonzero;stroke:none"
         id="path398"
         inkscape:connector-curvature="0" /></g><g
       id="g400"
       transform="translate(391.4766,385.3457)"
       inkscape:export-filename="/home/gruinelli/4.png"
       inkscape:export-xdpi="359.76999"
       inkscape:export-ydpi="359.76999"><path
         d="m 0,0 c -0.456,5.19 2.843,8.654 8.051,8.654 h 0.461 c 5.211,0 8.508,-3.46 8.052,-8.649 C 15.556,-11.577 11.475,-33.857 9.896,-43.953 9.563,-46.057 6.93,-45.886 6.671,-44.151 4.918,-32.331 1.009,-11.578 0,0"
         style="fill:#333333;fill-opacity:1;fill-rule:nonzero;stroke:none"
         id="path402"
         inkscape:connector-curvature="0" /></g><g
       id="g404"
       transform="translate(588.124,451.8335)"
       inkscape:export-filename="/home/gruinelli/5.png"
       inkscape:export-xdpi="359.76999"
       inkscape:export-ydpi="359.76999"><path
         d="m 0,0 c -1.835,1.836 -4.558,1.977 -6.394,0.141 l -7.974,-7.975 c -1.835,-1.835 -1.695,-4.558 0.14,-6.394 1.608,-1.605 4.044,-1.738 6.055,-0.344 l 4.607,-4.605 8.516,8.517 -4.604,4.606 C 1.739,-4.042 1.607,-1.606 0,0"
         style="fill:#333333;fill-opacity:1;fill-rule:nonzero;stroke:none"
         id="path406"
         inkscape:connector-curvature="0" /></g><g
       id="g408"
       transform="translate(640.1338,505.0117)"
       inkscape:export-filename="/home/gruinelli/5.png"
       inkscape:export-xdpi="359.76999"
       inkscape:export-ydpi="359.76999"><path
         d="m 0,0 c -13.757,0 -24.948,-10.267 -24.948,-22.885 0,-12.617 11.191,-22.883 24.948,-22.883 13.757,0 24.948,10.266 24.948,22.883 C 24.948,-10.267 13.757,0 0,0 m 0,-51.525 c -16.931,0 -30.705,12.849 -30.705,28.64 0,15.792 13.774,28.642 30.705,28.642 16.931,0 30.705,-12.85 30.705,-28.642 0,-15.791 -13.774,-28.64 -30.705,-28.64"
         style="fill:#333333;fill-opacity:1;fill-rule:nonzero;stroke:none"
         id="path410"
         inkscape:connector-curvature="0" /></g><g
       id="g412"
       transform="translate(639.6543,451.7886)"
       inkscape:export-filename="/home/gruinelli/5.png"
       inkscape:export-xdpi="359.76999"
       inkscape:export-ydpi="359.76999"><path
         d="m 0,0 c -36.498,0 -66.191,-29.693 -66.191,-66.191 0,-36.498 29.693,-66.193 66.191,-66.193 36.498,0 66.191,29.695 66.191,66.193 C 66.191,-29.693 36.498,0 0,0 m 0,-141.019 c -41.26,0 -74.827,33.568 -74.827,74.828 0,41.26 33.567,74.827 74.827,74.827 41.26,0 74.827,-33.567 74.827,-74.827 0,-41.26 -33.567,-74.828 -74.827,-74.828"
         style="fill:#333333;fill-opacity:1;fill-rule:nonzero;stroke:none"
         id="path414"
         inkscape:connector-curvature="0" /></g><path
       d="m 643,436 h -6 v 10 h 6 z"
       style="fill:#333333;fill-opacity:1;fill-rule:nonzero;stroke:none"
       id="path416"
       inkscape:connector-curvature="0"
       inkscape:export-filename="/home/gruinelli/5.png"
       inkscape:export-xdpi="359.76999"
       inkscape:export-ydpi="359.76999" /><g
       id="g418"
       transform="translate(606.167,423.3955)"
       inkscape:export-filename="/home/gruinelli/5.png"
       inkscape:export-xdpi="359.76999"
       inkscape:export-ydpi="359.76999"><path
         d="m 0,0 -4.072,-4.071 -7.123,7.125 4.07,4.07 z"
         style="fill:#333333;fill-opacity:1;fill-rule:nonzero;stroke:none"
         id="path420"
         inkscape:connector-curvature="0" /></g><path
       d="m 590,382 h -11 v 6 h 11 z"
       style="fill:#333333;fill-opacity:1;fill-rule:nonzero;stroke:none"
       id="path422"
       inkscape:connector-curvature="0"
       inkscape:export-filename="/home/gruinelli/5.png"
       inkscape:export-xdpi="359.76999"
       inkscape:export-ydpi="359.76999" /><g
       id="g424"
       transform="translate(602.0947,352.1504)"
       inkscape:export-filename="/home/gruinelli/5.png"
       inkscape:export-xdpi="359.76999"
       inkscape:export-ydpi="359.76999"><path
         d="m 0,0 4.072,-4.07 -7.125,-7.125 -4.07,4.072 z"
         style="fill:#333333;fill-opacity:1;fill-rule:nonzero;stroke:none"
         id="path426"
         inkscape:connector-curvature="0" /></g><path
       d="m 637,335 h 6 v -10 h -6 z"
       style="fill:#333333;fill-opacity:1;fill-rule:nonzero;stroke:none"
       id="path428"
       inkscape:connector-curvature="0"
       inkscape:export-filename="/home/gruinelli/5.png"
       inkscape:export-xdpi="359.76999"
       inkscape:export-ydpi="359.76999" /><g
       id="g430"
       transform="translate(673.3398,348.0801)"
       inkscape:export-filename="/home/gruinelli/5.png"
       inkscape:export-xdpi="359.76999"
       inkscape:export-ydpi="359.76999"><path
         d="M 0,0 4.07,4.07 11.195,-3.053 7.123,-7.125 Z"
         style="fill:#333333;fill-opacity:1;fill-rule:nonzero;stroke:none"
         id="path432"
         inkscape:connector-curvature="0" /></g><path
       d="m 690,388 h 10 v -6 h -10 z"
       style="fill:#333333;fill-opacity:1;fill-rule:nonzero;stroke:none"
       id="path434"
       inkscape:connector-curvature="0"
       inkscape:export-filename="/home/gruinelli/5.png"
       inkscape:export-xdpi="359.76999"
       inkscape:export-ydpi="359.76999" /><g
       id="g436"
       transform="translate(677.4102,419.3242)"
       inkscape:export-filename="/home/gruinelli/5.png"
       inkscape:export-xdpi="359.76999"
       inkscape:export-ydpi="359.76999"><path
         d="m 0,0 -4.07,4.071 7.123,7.124 4.072,-4.07 z"
         style="fill:#333333;fill-opacity:1;fill-rule:nonzero;stroke:none"
         id="path438"
         inkscape:connector-curvature="0" /></g><path
       d="m 650,453 h -19 v 24 h 19 z"
       style="fill:#333333;fill-opacity:1;fill-rule:nonzero;stroke:none"
       id="path440"
       inkscape:connector-curvature="0"
       inkscape:export-filename="/home/gruinelli/5.png"
       inkscape:export-xdpi="359.76999"
       inkscape:export-ydpi="359.76999" /><g
       id="g442"
       transform="translate(657,474.439)"
       inkscape:export-filename="/home/gruinelli/5.png"
       inkscape:export-xdpi="359.76999"
       inkscape:export-ydpi="359.76999"><path
         d="M 0,0 C 0,-0.795 -0.645,-1.439 -1.438,-1.439 H -31.562 C -32.355,-1.439 -33,-0.795 -33,0 v 16.122 c 0,0.795 0.645,1.439 1.438,1.439 H -1.438 C -0.645,17.561 0,16.917 0,16.122 Z"
         style="fill:#333333;fill-opacity:1;fill-rule:nonzero;stroke:none"
         id="path444"
         inkscape:connector-curvature="0" /></g><g
       id="g446"
       transform="translate(685,385.7695)"
       style="fill:#3771c8"
       inkscape:export-filename="/home/gruinelli/5.png"
       inkscape:export-xdpi="359.76999"
       inkscape:export-ydpi="359.76999"><path
         d="m 0,0 v -0.172 c 0,-12.349 -5.301,-23.504 -13.402,-31.582 -0.016,-0.027 -0.213,0.021 -0.241,-0.007 -8.103,-8.06 -19.382,-13.009 -31.703,-13.009 h -0.071 c -12.35,0 -23.376,4.935 -31.479,13.009 -0.015,0.014 0.128,0.011 0.128,0.025 L -45,-0.172 v 45.064 c 13,0 23.389,-5.066 31.508,-13.242 0.027,-0.027 0.319,-0.041 0.347,-0.072 C -5.113,23.477 0,12.32 0,0"
         style="fill:#3771c8;fill-opacity:1;fill-rule:nonzero;stroke:none"
         id="path448"
         inkscape:connector-curvature="0" /></g><g
       id="g450"
       transform="translate(633.7334,391.0371)"
       inkscape:export-filename="/home/gruinelli/5.png"
       inkscape:export-xdpi="359.76999"
       inkscape:export-ydpi="359.76999"><path
         d="m 0,0 c 3.349,3.994 8.66,4.641 12.343,0.957 l 0.325,-0.324 c 3.686,-3.686 3.039,-8.994 -0.953,-12.342 -8.902,-7.477 -27.809,-20.613 -36.065,-26.633 -1.72,-1.252 -3.329,0.863 -2.286,2.274 C -19.517,-26.471 -7.475,-8.9 0,0"
         style="fill:#333333;fill-opacity:1;fill-rule:nonzero;stroke:none"
         id="path452"
         inkscape:connector-curvature="0" /></g><g
       id="g454"
       transform="translate(684.3027,135.5977)"
       inkscape:export-filename="/home/gruinelli/8.png"
       inkscape:export-xdpi="359.76999"
       inkscape:export-ydpi="359.76999"
       style="fill:#3771c8"><path
         d="m 0,0 c 0,-24.793 -20.097,-44.889 -44.889,-44.889 -24.792,0 -44.889,20.096 -44.889,44.889 0,24.791 20.097,44.889 44.889,44.889 C -20.097,44.889 0,24.791 0,0"
         style="fill:#3771c8;fill-opacity:1;fill-rule:nonzero;stroke:none"
         id="path456"
         inkscape:connector-curvature="0" /></g><g
       id="g458"
       transform="translate(640.1338,255.0117)"
       inkscape:export-filename="/home/gruinelli/8.png"
       inkscape:export-xdpi="359.76999"
       inkscape:export-ydpi="359.76999"><path
         d="m 0,0 c -13.757,0 -24.948,-10.266 -24.948,-22.885 0,-12.617 11.191,-22.883 24.948,-22.883 13.757,0 24.948,10.266 24.948,22.883 C 24.948,-10.266 13.757,0 0,0 m 0,-51.525 c -16.931,0 -30.705,12.849 -30.705,28.64 0,15.793 13.774,28.643 30.705,28.643 16.931,0 30.705,-12.85 30.705,-28.643 0,-15.791 -13.774,-28.64 -30.705,-28.64"
         style="fill:#333333;fill-opacity:1;fill-rule:nonzero;stroke:none"
         id="path460"
         inkscape:connector-curvature="0" /></g><g
       id="g462"
       transform="translate(639.6543,201.7891)"
       inkscape:export-filename="/home/gruinelli/8.png"
       inkscape:export-xdpi="359.76999"
       inkscape:export-ydpi="359.76999"><path
         d="m 0,0 c -36.498,0 -66.191,-29.693 -66.191,-66.191 0,-36.498 29.693,-66.194 66.191,-66.194 36.498,0 66.191,29.696 66.191,66.194 C 66.191,-29.693 36.498,0 0,0 m 0,-141.02 c -41.26,0 -74.827,33.569 -74.827,74.829 0,41.259 33.567,74.826 74.827,74.826 41.26,0 74.827,-33.567 74.827,-74.826 0,-41.26 -33.567,-74.829 -74.827,-74.829"
         style="fill:#333333;fill-opacity:1;fill-rule:nonzero;stroke:none"
         id="path464"
         inkscape:connector-curvature="0" /></g><g
       id="g466"
       transform="translate(647.6973,134.7959)"
       inkscape:export-filename="/home/gruinelli/8.png"
       inkscape:export-xdpi="359.76999"
       inkscape:export-ydpi="359.76999"><path
         d="m 0,0 c 0.454,-5.189 -2.844,-10.796 -8.053,-10.796 h -0.461 c -5.209,0 -8.507,5.607 -8.052,10.796 1.01,11.58 5.089,34.937 6.671,45.032 0.332,2.104 2.964,1.392 3.222,-0.343 C -4.918,32.869 -1.011,11.58 0,0"
         style="fill:#333333;fill-opacity:1;fill-rule:nonzero;stroke:none"
         id="path468"
         inkscape:connector-curvature="0" /></g><path
       d="m 643,186 h -6 v 10 h 6 z"
       style="fill:#333333;fill-opacity:1;fill-rule:nonzero;stroke:none"
       id="path470"
       inkscape:connector-curvature="0"
       inkscape:export-filename="/home/gruinelli/8.png"
       inkscape:export-xdpi="359.76999"
       inkscape:export-ydpi="359.76999" /><g
       id="g472"
       transform="translate(606.167,173.3965)"
       inkscape:export-filename="/home/gruinelli/8.png"
       inkscape:export-xdpi="359.76999"
       inkscape:export-ydpi="359.76999"><path
         d="m 0,0 -4.071,-4.072 -7.124,7.125 4.07,4.07 z"
         style="fill:#333333;fill-opacity:1;fill-rule:nonzero;stroke:none"
         id="path474"
         inkscape:connector-curvature="0" /></g><path
       d="m 590,132 h -11 v 6 h 11 z"
       style="fill:#333333;fill-opacity:1;fill-rule:nonzero;stroke:none"
       id="path476"
       inkscape:connector-curvature="0"
       inkscape:export-filename="/home/gruinelli/8.png"
       inkscape:export-xdpi="359.76999"
       inkscape:export-ydpi="359.76999" /><g
       id="g478"
       transform="translate(602.0957,102.1504)"
       inkscape:export-filename="/home/gruinelli/8.png"
       inkscape:export-xdpi="359.76999"
       inkscape:export-ydpi="359.76999"><path
         d="m 0,0 4.071,-4.07 -7.125,-7.125 -4.07,4.072 z"
         style="fill:#333333;fill-opacity:1;fill-rule:nonzero;stroke:none"
         id="path480"
         inkscape:connector-curvature="0" /></g><path
       d="m 637,85 h 6 V 75 h -6 z"
       style="fill:#333333;fill-opacity:1;fill-rule:nonzero;stroke:none"
       id="path482"
       inkscape:connector-curvature="0"
       inkscape:export-filename="/home/gruinelli/8.png"
       inkscape:export-xdpi="359.76999"
       inkscape:export-ydpi="359.76999" /><g
       id="g484"
       transform="translate(673.3398,98.0801)"
       inkscape:export-filename="/home/gruinelli/8.png"
       inkscape:export-xdpi="359.76999"
       inkscape:export-ydpi="359.76999"><path
         d="M 0,0 4.07,4.07 11.195,-3.053 7.123,-7.125 Z"
         style="fill:#333333;fill-opacity:1;fill-rule:nonzero;stroke:none"
         id="path486"
         inkscape:connector-curvature="0" /></g><path
       d="m 690,138 h 10 v -6 h -10 z"
       style="fill:#333333;fill-opacity:1;fill-rule:nonzero;stroke:none"
       id="path488"
       inkscape:connector-curvature="0"
       inkscape:export-filename="/home/gruinelli/8.png"
       inkscape:export-xdpi="359.76999"
       inkscape:export-ydpi="359.76999" /><g
       id="g490"
       transform="translate(677.4102,169.3242)"
       inkscape:export-filename="/home/gruinelli/8.png"
       inkscape:export-xdpi="359.76999"
       inkscape:export-ydpi="359.76999"><path
         d="m 0,0 -4.07,4.072 7.123,7.123 4.072,-4.07 z"
         style="fill:#333333;fill-opacity:1;fill-rule:nonzero;stroke:none"
         id="path492"
         inkscape:connector-curvature="0" /></g><g
       id="g494"
       transform="translate(588.124,201.834)"
       inkscape:export-filename="/home/gruinelli/8.png"
       inkscape:export-xdpi="359.76999"
       inkscape:export-ydpi="359.76999"><path
         d="m 0,0 c -1.835,1.836 -4.558,1.977 -6.393,0.141 l -7.975,-7.977 c -1.835,-1.834 -1.695,-4.557 0.14,-6.393 1.608,-1.605 4.044,-1.738 6.055,-0.343 l 4.607,-4.606 8.516,8.518 -4.604,4.605 C 1.74,-4.043 1.607,-1.607 0,0"
         style="fill:#333333;fill-opacity:1;fill-rule:nonzero;stroke:none"
         id="path496"
         inkscape:connector-curvature="0" /></g><path
       d="m 650,203 h -19 v 24 h 19 z"
       style="fill:#333333;fill-opacity:1;fill-rule:nonzero;stroke:none"
       id="path498"
       inkscape:connector-curvature="0"
       inkscape:export-filename="/home/gruinelli/8.png"
       inkscape:export-xdpi="359.76999"
       inkscape:export-ydpi="359.76999" /><g
       id="g500"
       transform="translate(657,224.4395)"
       inkscape:export-filename="/home/gruinelli/8.png"
       inkscape:export-xdpi="359.76999"
       inkscape:export-ydpi="359.76999"><path
         d="M 0,0 C 0,-0.795 -0.645,-1.439 -1.438,-1.439 H -31.562 C -32.355,-1.439 -33,-0.795 -33,0 v 16.121 c 0,0.795 0.645,1.44 1.438,1.44 H -1.438 C -0.645,17.561 0,16.916 0,16.121 Z"
         style="fill:#333333;fill-opacity:1;fill-rule:nonzero;stroke:none"
         id="path502"
         inkscape:connector-curvature="0" /></g><g
       id="g504"
       transform="translate(348.4692,201.834)"
       inkscape:export-filename="/home/gruinelli/7.png"
       inkscape:export-xdpi="359.76999"
       inkscape:export-ydpi="359.76999"><path
         d="m 0,0 c -1.834,1.836 -4.557,1.977 -6.393,0.141 l -7.975,-7.977 c -1.834,-1.834 -1.695,-4.557 0.14,-6.393 1.608,-1.605 4.044,-1.738 6.056,-0.343 l 4.606,-4.606 8.517,8.518 -4.605,4.605 C 1.74,-4.043 1.608,-1.607 0,0"
         style="fill:#333333;fill-opacity:1;fill-rule:nonzero;stroke:none"
         id="path506"
         inkscape:connector-curvature="0" /></g><g
       id="g508"
       transform="translate(400.4795,255.0117)"
       inkscape:export-filename="/home/gruinelli/7.png"
       inkscape:export-xdpi="359.76999"
       inkscape:export-ydpi="359.76999"><path
         d="m 0,0 c -13.757,0 -24.948,-10.266 -24.948,-22.885 0,-12.617 11.191,-22.883 24.948,-22.883 13.757,0 24.948,10.266 24.948,22.883 C 24.948,-10.266 13.757,0 0,0 m 0,-51.525 c -16.931,0 -30.706,12.849 -30.706,28.64 0,15.793 13.775,28.643 30.706,28.643 16.931,0 30.705,-12.85 30.705,-28.643 0,-15.791 -13.774,-28.64 -30.705,-28.64"
         style="fill:#333333;fill-opacity:1;fill-rule:nonzero;stroke:none"
         id="path510"
         inkscape:connector-curvature="0" /></g><g
       id="g512"
       transform="translate(400,201.7891)"
       inkscape:export-filename="/home/gruinelli/7.png"
       inkscape:export-xdpi="359.76999"
       inkscape:export-ydpi="359.76999"><path
         d="m 0,0 c -36.498,0 -66.191,-29.693 -66.191,-66.191 0,-36.498 29.693,-66.194 66.191,-66.194 36.498,0 66.19,29.696 66.19,66.194 C 66.19,-29.693 36.498,0 0,0 m 0,-141.02 c -41.26,0 -74.827,33.569 -74.827,74.829 0,41.259 33.567,74.826 74.827,74.826 41.26,0 74.827,-33.567 74.827,-74.826 0,-41.26 -33.567,-74.829 -74.827,-74.829"
         style="fill:#333333;fill-opacity:1;fill-rule:nonzero;stroke:none"
         id="path514"
         inkscape:connector-curvature="0" /></g><path
       d="m 404,186 h -6 v 10 h 6 z"
       style="fill:#333333;fill-opacity:1;fill-rule:nonzero;stroke:none"
       id="path516"
       inkscape:connector-curvature="0"
       inkscape:export-filename="/home/gruinelli/7.png"
       inkscape:export-xdpi="359.76999"
       inkscape:export-ydpi="359.76999" /><g
       id="g518"
       transform="translate(366.5132,173.3965)"
       inkscape:export-filename="/home/gruinelli/7.png"
       inkscape:export-xdpi="359.76999"
       inkscape:export-ydpi="359.76999"><path
         d="m 0,0 -4.072,-4.072 -7.124,7.125 4.071,4.07 z"
         style="fill:#333333;fill-opacity:1;fill-rule:nonzero;stroke:none"
         id="path520"
         inkscape:connector-curvature="0" /></g><path
       d="m 351,132 h -11 v 6 h 11 z"
       style="fill:#333333;fill-opacity:1;fill-rule:nonzero;stroke:none"
       id="path522"
       inkscape:connector-curvature="0"
       inkscape:export-filename="/home/gruinelli/7.png"
       inkscape:export-xdpi="359.76999"
       inkscape:export-ydpi="359.76999" /><g
       id="g524"
       transform="translate(362.4409,102.1523)"
       inkscape:export-filename="/home/gruinelli/7.png"
       inkscape:export-xdpi="359.76999"
       inkscape:export-ydpi="359.76999"><path
         d="m 0,0 4.072,-4.072 -7.125,-7.125 -4.071,4.072 z"
         style="fill:#333333;fill-opacity:1;fill-rule:nonzero;stroke:none"
         id="path526"
         inkscape:connector-curvature="0" /></g><path
       d="m 398,85 h 6 V 75 h -6 z"
       style="fill:#333333;fill-opacity:1;fill-rule:nonzero;stroke:none"
       id="path528"
       inkscape:connector-curvature="0"
       inkscape:export-filename="/home/gruinelli/7.png"
       inkscape:export-xdpi="359.76999"
       inkscape:export-ydpi="359.76999" /><g
       id="g530"
       transform="translate(433.6846,98.0801)"
       inkscape:export-filename="/home/gruinelli/7.png"
       inkscape:export-xdpi="359.76999"
       inkscape:export-ydpi="359.76999"><path
         d="M 0,0 4.071,4.072 11.196,-3.053 7.124,-7.125 Z"
         style="fill:#333333;fill-opacity:1;fill-rule:nonzero;stroke:none"
         id="path532"
         inkscape:connector-curvature="0" /></g><path
       d="m 451,138 h 10 v -6 h -10 z"
       style="fill:#333333;fill-opacity:1;fill-rule:nonzero;stroke:none"
       id="path534"
       inkscape:connector-curvature="0"
       inkscape:export-filename="/home/gruinelli/7.png"
       inkscape:export-xdpi="359.76999"
       inkscape:export-ydpi="359.76999" /><g
       id="g536"
       transform="translate(437.7559,169.3242)"
       inkscape:export-filename="/home/gruinelli/7.png"
       inkscape:export-xdpi="359.76999"
       inkscape:export-ydpi="359.76999"><path
         d="m 0,0 -4.071,4.072 7.124,7.123 4.072,-4.07 z"
         style="fill:#333333;fill-opacity:1;fill-rule:nonzero;stroke:none"
         id="path538"
         inkscape:connector-curvature="0" /></g><path
       d="m 411,203 h -19 v 24 h 19 z"
       style="fill:#333333;fill-opacity:1;fill-rule:nonzero;stroke:none"
       id="path540"
       inkscape:connector-curvature="0"
       inkscape:export-filename="/home/gruinelli/7.png"
       inkscape:export-xdpi="359.76999"
       inkscape:export-ydpi="359.76999" /><g
       id="g542"
       transform="translate(418,224.4395)"
       inkscape:export-filename="/home/gruinelli/7.png"
       inkscape:export-xdpi="359.76999"
       inkscape:export-ydpi="359.76999"><path
         d="M 0,0 C 0,-0.795 -0.645,-1.439 -1.439,-1.439 H -31.561 C -32.355,-1.439 -33,-0.795 -33,0 v 16.121 c 0,0.795 0.645,1.44 1.439,1.44 H -1.439 C -0.645,17.561 0,16.916 0,16.121 Z"
         style="fill:#333333;fill-opacity:1;fill-rule:nonzero;stroke:none"
         id="path544"
         inkscape:connector-curvature="0" /></g><g
       id="g546"
       transform="translate(446,135.7695)"
       style="fill:#3771c8"
       inkscape:export-filename="/home/gruinelli/7.png"
       inkscape:export-xdpi="359.76999"
       inkscape:export-ydpi="359.76999"><path
         d="m 0,0 v -0.172 c 0,-12.377 -5.648,-23.564 -13.795,-31.65 -8.105,-8.074 -19.579,-13.071 -31.928,-13.071 -12.349,0 -23.239,4.997 -31.344,13.071 C -85.212,-23.736 -90,-12.549 -90,-0.172 V 0 c 0,12.35 5.048,23.549 13.123,31.65 L -45,-0.172 v 45.065 c 13,0 23.745,-5.067 31.877,-13.243 C -5.048,23.549 0,12.35 0,0"
         style="fill:#3771c8;fill-opacity:1;fill-rule:nonzero;stroke:none"
         id="path548"
         inkscape:connector-curvature="0" /></g><g
       id="g550"
       transform="translate(405.3721,141.1055)"
       inkscape:export-filename="/home/gruinelli/7.png"
       inkscape:export-xdpi="359.76999"
       inkscape:export-ydpi="359.76999"><path
         d="M 0,0 C 3.992,-3.35 4.639,-8.66 0.956,-12.342 L 0.63,-12.668 c -3.684,-3.684 -8.993,-3.035 -12.343,0.955 -7.474,8.9 -20.611,27.809 -26.63,36.067 -1.253,1.718 0.863,3.326 2.273,2.281 C -26.472,19.518 -8.9,7.475 0,0"
         style="fill:#333333;fill-opacity:1;fill-rule:nonzero;stroke:none"
         id="path552"
         inkscape:connector-curvature="0" /></g><g
       id="g554"
       transform="translate(108.8149,201.834)"
       inkscape:export-filename="/home/gruinelli/6.png"
       inkscape:export-xdpi="359.76999"
       inkscape:export-ydpi="359.76999"><path
         d="m 0,0 c -1.834,1.836 -4.557,1.977 -6.393,0.141 l -7.975,-7.977 c -1.834,-1.834 -1.695,-4.557 0.14,-6.393 1.608,-1.605 4.044,-1.738 6.056,-0.343 l 4.606,-4.606 8.517,8.518 -4.605,4.605 C 1.74,-4.043 1.608,-1.607 0,0"
         style="fill:#333333;fill-opacity:1;fill-rule:nonzero;stroke:none"
         id="path556"
         inkscape:connector-curvature="0" /></g><g
       id="g558"
       transform="translate(160.8252,255.0117)"
       inkscape:export-filename="/home/gruinelli/6.png"
       inkscape:export-xdpi="359.76999"
       inkscape:export-ydpi="359.76999"><path
         d="m 0,0 c -13.757,0 -24.948,-10.266 -24.948,-22.885 0,-12.617 11.191,-22.883 24.948,-22.883 13.756,0 24.948,10.266 24.948,22.883 C 24.948,-10.266 13.756,0 0,0 m 0,-51.525 c -16.931,0 -30.706,12.849 -30.706,28.64 0,15.793 13.775,28.643 30.706,28.643 16.93,0 30.705,-12.85 30.705,-28.643 0,-15.791 -13.775,-28.64 -30.705,-28.64"
         style="fill:#333333;fill-opacity:1;fill-rule:nonzero;stroke:none"
         id="path560"
         inkscape:connector-curvature="0" /></g><g
       id="g562"
       transform="translate(160.3457,201.7891)"
       inkscape:export-filename="/home/gruinelli/6.png"
       inkscape:export-xdpi="359.76999"
       inkscape:export-ydpi="359.76999"><path
         d="m 0,0 c -36.498,0 -66.191,-29.693 -66.191,-66.191 0,-36.498 29.693,-66.194 66.191,-66.194 36.498,0 66.191,29.696 66.191,66.194 C 66.191,-29.693 36.498,0 0,0 m 0,-141.02 c -41.26,0 -74.827,33.569 -74.827,74.829 0,41.259 33.567,74.826 74.827,74.826 41.26,0 74.827,-33.567 74.827,-74.826 0,-41.26 -33.567,-74.829 -74.827,-74.829"
         style="fill:#333333;fill-opacity:1;fill-rule:nonzero;stroke:none"
         id="path564"
         inkscape:connector-curvature="0" /></g><path
       d="m 164,186 h -6 v 10 h 6 z"
       style="fill:#333333;fill-opacity:1;fill-rule:nonzero;stroke:none"
       id="path566"
       inkscape:connector-curvature="0"
       inkscape:export-filename="/home/gruinelli/6.png"
       inkscape:export-xdpi="359.76999"
       inkscape:export-ydpi="359.76999" /><g
       id="g568"
       transform="translate(126.8589,173.3965)"
       inkscape:export-filename="/home/gruinelli/6.png"
       inkscape:export-xdpi="359.76999"
       inkscape:export-ydpi="359.76999"><path
         d="m 0,0 -4.072,-4.072 -7.124,7.125 4.071,4.07 z"
         style="fill:#333333;fill-opacity:1;fill-rule:nonzero;stroke:none"
         id="path570"
         inkscape:connector-curvature="0" /></g><path
       d="m 111,132 h -11 v 6 h 11 z"
       style="fill:#333333;fill-opacity:1;fill-rule:nonzero;stroke:none"
       id="path572"
       inkscape:connector-curvature="0"
       inkscape:export-filename="/home/gruinelli/6.png"
       inkscape:export-xdpi="359.76999"
       inkscape:export-ydpi="359.76999" /><g
       id="g574"
       transform="translate(122.7866,102.1504)"
       inkscape:export-filename="/home/gruinelli/6.png"
       inkscape:export-xdpi="359.76999"
       inkscape:export-ydpi="359.76999"><path
         d="m 0,0 4.072,-4.07 -7.125,-7.125 -4.071,4.072 z"
         style="fill:#333333;fill-opacity:1;fill-rule:nonzero;stroke:none"
         id="path576"
         inkscape:connector-curvature="0" /></g><path
       d="m 158,85 h 6 V 75 h -6 z"
       style="fill:#333333;fill-opacity:1;fill-rule:nonzero;stroke:none"
       id="path578"
       inkscape:connector-curvature="0"
       inkscape:export-filename="/home/gruinelli/6.png"
       inkscape:export-xdpi="359.76999"
       inkscape:export-ydpi="359.76999" /><g
       id="g580"
       transform="translate(194.0308,98.0801)"
       inkscape:export-filename="/home/gruinelli/6.png"
       inkscape:export-xdpi="359.76999"
       inkscape:export-ydpi="359.76999"><path
         d="M 0,0 4.071,4.07 11.196,-3.053 7.124,-7.125 Z"
         style="fill:#333333;fill-opacity:1;fill-rule:nonzero;stroke:none"
         id="path582"
         inkscape:connector-curvature="0" /></g><path
       d="m 211,138 h 10 v -6 h -10 z"
       style="fill:#333333;fill-opacity:1;fill-rule:nonzero;stroke:none"
       id="path584"
       inkscape:connector-curvature="0"
       inkscape:export-filename="/home/gruinelli/6.png"
       inkscape:export-xdpi="359.76999"
       inkscape:export-ydpi="359.76999" /><g
       id="g586"
       transform="translate(198.1016,169.3242)"
       inkscape:export-filename="/home/gruinelli/6.png"
       inkscape:export-xdpi="359.76999"
       inkscape:export-ydpi="359.76999"><path
         d="m 0,0 -4.071,4.072 7.124,7.123 4.072,-4.07 z"
         style="fill:#333333;fill-opacity:1;fill-rule:nonzero;stroke:none"
         id="path588"
         inkscape:connector-curvature="0" /></g><path
       d="m 171,203 h -19 v 24 h 19 z"
       style="fill:#333333;fill-opacity:1;fill-rule:nonzero;stroke:none"
       id="path590"
       inkscape:connector-curvature="0"
       inkscape:export-filename="/home/gruinelli/6.png"
       inkscape:export-xdpi="359.76999"
       inkscape:export-ydpi="359.76999" /><g
       id="g592"
       transform="translate(178,224.4395)"
       inkscape:export-filename="/home/gruinelli/6.png"
       inkscape:export-xdpi="359.76999"
       inkscape:export-ydpi="359.76999"><path
         d="M 0,0 C 0,-0.795 -0.645,-1.439 -1.439,-1.439 H -31.561 C -32.355,-1.439 -33,-0.795 -33,0 v 16.121 c 0,0.795 0.645,1.44 1.439,1.44 H -1.439 C -0.645,17.561 0,16.916 0,16.121 Z"
         style="fill:#333333;fill-opacity:1;fill-rule:nonzero;stroke:none"
         id="path594"
         inkscape:connector-curvature="0" /></g><g
       id="g596"
       transform="translate(206,135.7695)"
       style="fill:#3771c8"
       inkscape:export-filename="/home/gruinelli/6.png"
       inkscape:export-xdpi="359.76999"
       inkscape:export-ydpi="359.76999"><path
         d="m 0,0 v -0.172 c 0,-12.349 -5.455,-23.504 -13.558,-31.582 -0.014,-0.027 -0.288,0.021 -0.316,-0.007 -8.104,-8.06 -19.46,-13.009 -31.78,-13.009 h -0.072 c -12.35,0 -23.375,4.935 -31.479,13.009 -0.015,0.014 -0.043,-0.288 -0.043,-0.274 -8.133,8.092 -13.025,20.265 -13.025,31.265 H -45 v 45.663 c 13,0 23.234,-5.067 31.353,-13.243 0.028,-0.027 0.397,-0.041 0.425,-0.07 C -5.19,23.477 0,12.32 0,0"
         style="fill:#3771c8;fill-opacity:1;fill-rule:nonzero;stroke:none"
         id="path598"
         inkscape:connector-curvature="0" /></g><g
       id="g600"
       transform="translate(160.5576,143.9629)"
       inkscape:export-filename="/home/gruinelli/6.png"
       inkscape:export-xdpi="359.76999"
       inkscape:export-ydpi="359.76999"><path
         d="m 0,0 c 5.192,0.455 9.442,-2.844 9.442,-8.053 v -0.461 c 0,-5.209 -4.247,-8.506 -9.436,-8.052 -11.583,1.009 -34.258,5.089 -44.353,6.67 -2.102,0.332 -1.733,2.966 0,3.224 C -32.525,-4.918 -11.577,-1.01 0,0"
         style="fill:#333333;fill-opacity:1;fill-rule:nonzero;stroke:none"
         id="path602"
         inkscape:connector-curvature="0" /></g></g></svg>